<svg width="35" height="31" viewBox="0 0 35 31" fill="none" xmlns="http://www.w3.org/2000/svg">
<path id="Vector" d="M12.6829 0.441406C10.8728 0.441406 9.36564 1.65016 8.9378 3.27772C8.89235 3.27655 8.84993 3.26478 8.80448 3.26478C6.66289 3.26478 4.9261 4.94999 4.9261 7.02929C4.9261 7.31398 4.96489 7.58867 5.0267 7.85512C3.26203 8.55861 2.01732 10.2391 2.01732 12.2055C2.01732 12.9454 2.20881 13.636 2.52272 14.2589C1.06832 15.0712 0.078125 16.5776 0.078125 18.3228C0.078125 20.2839 1.31557 21.9626 3.07296 22.669C3.01842 22.9378 2.98691 23.2149 2.98691 23.499C2.98691 25.8377 4.94004 27.734 7.35009 27.734C7.59976 27.734 7.84095 27.7017 8.0791 27.6629C8.65965 29.3404 10.274 30.5574 12.1981 30.5574C14.6081 30.5574 16.5612 28.6611 16.5612 26.3224V12.526C15.9001 13.0543 15.1081 13.4348 14.2366 13.6078C13.9355 13.6678 13.6525 13.4419 13.6525 13.1437V12.1919C13.6525 11.982 13.7949 11.7931 14.0039 11.7414C15.4705 11.3791 16.5612 10.0974 16.5612 8.56273V4.20591C16.5612 2.12661 14.8245 0.441406 12.6829 0.441406ZM34.9836 18.3228C34.9836 16.5776 33.9934 15.0712 32.539 14.2589C32.8523 13.636 33.0444 12.9454 33.0444 12.2055C33.0444 10.2391 31.7997 8.55861 30.035 7.85512C30.0968 7.58867 30.1356 7.31398 30.1356 7.02929C30.1356 4.94999 28.3988 3.26478 26.2572 3.26478C26.2118 3.26478 26.1693 3.27655 26.1239 3.27772C25.696 1.65016 24.1889 0.441406 22.3788 0.441406C20.2372 0.441406 18.5004 2.12661 18.5004 4.20591V8.56273C18.5004 10.0974 19.5906 11.3791 21.0577 11.7414C21.2674 11.7931 21.4092 11.982 21.4092 12.1919V13.1437C21.4092 13.4419 21.1256 13.6678 20.825 13.6078C19.9536 13.4348 19.1622 13.0543 18.5004 12.526V26.3224C18.5004 28.6611 20.4536 30.5574 22.8636 30.5574C24.7877 30.5574 26.402 29.3404 26.9826 27.6629C27.2207 27.7023 27.4619 27.734 27.7116 27.734C30.1216 27.734 32.0748 25.8377 32.0748 23.499C32.0748 23.2149 32.0433 22.9378 31.9887 22.669C33.7461 21.9626 34.9836 20.2839 34.9836 18.3228Z" fill="#8F5DFF"/>
</svg>
