<svg width="21" height="20" viewBox="0 0 21 20" fill="none" xmlns="http://www.w3.org/2000/svg">
<g id="copy">
<path id="Icon" d="M16.5 7.75H9.75C8.92157 7.75 8.25 8.42157 8.25 9.25V16C8.25 16.8284 8.92157 17.5 9.75 17.5H16.5C17.3284 17.5 18 16.8284 18 16V9.25C18 8.42157 17.3284 7.75 16.5 7.75Z" stroke="white" stroke-width="1.5" stroke-linecap="round" stroke-linejoin="round"/>
<path id="Icon_2" d="M5.25 12.25H4.5C4.10218 12.25 3.72064 12.092 3.43934 11.8107C3.15804 11.5294 3 11.1478 3 10.75V4C3 3.60218 3.15804 3.22064 3.43934 2.93934C3.72064 2.65804 4.10218 2.5 4.5 2.5H11.25C11.6478 2.5 12.0294 2.65804 12.3107 2.93934C12.592 3.22064 12.75 3.60218 12.75 4V4.75" stroke="white" stroke-width="1.5" stroke-linecap="round" stroke-linejoin="round"/>
</g>
</svg>
