<svg width="21" height="20" viewBox="0 0 21 20" fill="none" xmlns="http://www.w3.org/2000/svg">
<path fill-rule="evenodd" clip-rule="evenodd" d="M17.9563 0C19.4626 0 20.6836 1.22101 20.6836 2.72728V17.2727C20.6836 18.779 19.4626 20 17.9563 20H3.41088C1.9046 20 0.683594 18.779 0.683594 17.2727V2.72728C0.683594 1.22101 1.9046 0 3.41088 0H17.9563ZM17.9563 1.81828C18.4584 1.81828 18.8653 2.22519 18.8653 2.72728V17.2727C18.8653 17.7748 18.4584 18.1817 17.9563 18.1817H13.4107V11.8179H15.2983C15.6897 11.8179 16.0368 11.5675 16.1607 11.1963L16.5635 9.98814C16.7108 9.54659 16.3821 9.09059 15.9166 9.09059H13.4107V7.27231C13.4107 6.81767 13.8654 6.3633 14.3197 6.3633H16.138C16.6401 6.3633 17.047 5.95639 17.047 5.4543V4.83057C17.047 4.53684 16.8594 4.27366 16.5755 4.19866C15.3839 3.8842 14.3197 3.8842 14.3197 3.8842C12.0471 3.8842 10.6835 5.4543 10.6835 6.81794V9.09059H8.86518C8.36308 9.09059 7.95617 9.4975 7.95617 9.99959V10.9086C7.95617 11.4107 8.36308 11.8176 8.86518 11.8176H10.6835V18.1814H3.41088C2.90879 18.1814 2.50187 17.7745 2.50187 17.2724V2.72728C2.50187 2.22519 2.90879 1.81828 3.41088 1.81828H17.9563Z" fill="white"/>
</svg>
