<svg width="28" height="28" viewBox="0 0 28 28" fill="none" xmlns="http://www.w3.org/2000/svg">
<g id="message-circle">
<path id="Icon" d="M23.45 13.4751C23.4537 14.8609 23.1299 16.2281 22.505 17.4651C21.7642 18.9474 20.6253 20.1942 19.2159 21.0658C17.8065 21.9374 16.1822 22.3994 14.525 22.4001C13.1392 22.4037 11.7721 22.0799 10.535 21.4551L4.55005 23.4501L6.54505 17.4651C5.92023 16.2281 5.59644 14.8609 5.60005 13.4751C5.60069 11.8179 6.06269 10.1937 6.9343 8.78426C7.80592 7.37484 9.05272 6.23592 10.535 5.49508C11.7721 4.87026 13.1392 4.54647 14.525 4.55008H15.05C17.2386 4.67082 19.3057 5.59458 20.8556 7.14448C22.4055 8.69438 23.3293 10.7615 23.45 12.9501V13.4751Z" stroke="#F8FAFB" stroke-width="2" stroke-linecap="round" stroke-linejoin="round"/>
</g>
</svg>
