<svg width="23" height="20" viewBox="0 0 23 20" fill="none" xmlns="http://www.w3.org/2000/svg">
<path fill-rule="evenodd" clip-rule="evenodd" d="M11.6413 3.81331L20.9945 7.76739C21.0996 7.81436 21.189 7.89077 21.2516 7.9874C21.3143 8.08403 21.3477 8.19675 21.3477 8.31192C21.3477 8.4271 21.3143 8.53982 21.2516 8.63645C21.189 8.73308 21.0996 8.80949 20.9945 8.85646L19.852 9.34048C19.851 9.53642 19.8516 10.5057 19.8522 11.5508C19.8529 12.7866 19.8537 14.1284 19.852 14.4228C20.4247 14.7172 20.611 15.7717 20.2684 16.3589L20.934 18.6971C20.9524 18.7684 20.9485 18.8436 20.9229 18.9126C20.8972 18.9816 20.851 19.0411 20.7905 19.083C20.7299 19.1249 20.658 19.1473 20.5844 19.147C20.5108 19.1467 20.439 19.1239 20.3788 19.0815C20.1112 18.8805 19.7845 18.7741 19.4499 18.779C19.1354 18.7867 18.8309 18.8911 18.5779 19.078C18.52 19.122 18.4499 19.147 18.3773 19.1495C18.3046 19.1521 18.233 19.132 18.1722 19.0922C18.1109 19.0536 18.0632 18.9969 18.0358 18.9299C18.0084 18.8629 18.0025 18.789 18.0191 18.7185L18.5423 16.3696C18.1463 15.7172 18.4333 14.5121 19.1402 14.3338C19.1415 14.0828 19.1408 13.1424 19.14 12.1649C19.1391 11.0442 19.1382 9.87476 19.1402 9.63944C17.5543 10.3123 13.2925 12.1138 11.6413 12.8105C11.4958 12.8713 11.3323 12.8725 11.1858 12.8141L6.04651 10.6466C5.79368 10.5367 4.68241 10.0687 3.6472 9.63272C2.81428 9.28195 2.03059 8.95191 1.78289 8.84578C1.67738 8.79845 1.58786 8.72155 1.52517 8.62439C1.46249 8.52722 1.42932 8.41396 1.42969 8.29833C1.43006 8.18269 1.46396 8.06965 1.52727 7.97289C1.59058 7.87613 1.68059 7.7998 1.7864 7.75316L11.1858 3.81331C11.2578 3.78249 11.3353 3.7666 11.4136 3.7666C11.4919 3.7666 11.5694 3.78249 11.6413 3.81331ZM10.0457 13.1057C10.4884 13.2927 10.8092 13.4283 10.9055 13.4689C11.2292 13.6023 11.5925 13.6023 11.9162 13.4689C12.0086 13.4298 12.3192 13.2987 12.7499 13.1168C14.2727 12.4736 17.2972 11.1963 17.4897 11.1128V14.5793C17.4869 14.7689 17.4378 14.9549 17.3466 15.1212C17.2554 15.2875 17.1249 15.4289 16.9665 15.5331C15.2411 16.6818 13.2057 17.2755 11.1332 17.2343C9.24198 17.1802 7.40567 16.5862 5.84097 15.5224C5.68641 15.4187 5.55934 15.279 5.47069 15.1154C5.38203 14.9517 5.33445 14.769 5.33203 14.5828V11.1164C5.5368 11.2007 8.51739 12.46 10.0457 13.1057Z" fill="white"/>
</svg>
