<svg width="22" height="22" viewBox="0 0 22 22" fill="none" xmlns="http://www.w3.org/2000/svg">
<path d="M11 1.98187C13.9376 1.98187 14.2856 1.99305 15.445 2.04633C16.5176 2.09532 17.1003 2.27408 17.4879 2.42535C18.001 2.62474 18.368 2.86366 18.753 3.24869C19.1381 3.63372 19.3761 3.99984 19.5755 4.51379C19.7259 4.9014 19.9055 5.4841 19.9545 6.55668C20.0078 7.71693 20.019 8.065 20.019 11.0017C20.019 13.9384 20.0078 14.2874 19.9545 15.4468C19.9055 16.5193 19.7268 17.102 19.5755 17.4896C19.3761 18.0027 19.1372 18.3697 18.753 18.7547C18.368 19.1398 18.0019 19.3778 17.4879 19.5772C17.1003 19.7276 16.5176 19.9073 15.445 19.9562C14.2848 20.0095 13.9376 20.0207 11 20.0207C8.06243 20.0207 7.71435 20.0095 6.55497 19.9562C5.48238 19.9073 4.89968 19.7285 4.51207 19.5772C3.99898 19.3778 3.632 19.1389 3.24697 18.7547C2.86194 18.3697 2.62388 18.0036 2.42449 17.4896C2.27408 17.102 2.09446 16.5193 2.04547 15.4468C1.99219 14.2865 1.98101 13.9384 1.98101 11.0017C1.98101 8.065 1.99219 7.71607 2.04547 6.55668C2.09446 5.4841 2.27322 4.9014 2.42449 4.51379C2.62388 4.0007 2.8628 3.63372 3.24697 3.24869C3.632 2.86366 3.99813 2.6256 4.51207 2.42535C4.89968 2.27494 5.48238 2.09532 6.55497 2.04633C7.71521 1.99305 8.06329 1.98187 11 1.98187ZM11 0C8.01258 0 7.63786 0.0128916 6.46472 0.066177C5.29416 0.119462 4.49402 0.305961 3.79444 0.577545C3.07079 0.858583 2.45715 1.23502 1.84608 1.84608C1.23416 2.458 0.858583 3.07079 0.577545 3.79444C0.305961 4.49402 0.119462 5.29416 0.066177 6.46472C0.0128916 7.63786 0 8.01258 0 11C0 13.9874 0.0128916 14.3621 0.066177 15.5353C0.119462 16.7058 0.305961 17.506 0.577545 18.2056C0.858583 18.9292 1.23502 19.5429 1.84608 20.1539C2.458 20.7658 3.07079 21.1414 3.79444 21.4225C4.49402 21.694 5.29416 21.8805 6.46472 21.9338C7.63786 21.9871 8.01258 22 11 22C13.9874 22 14.3621 21.9871 15.5353 21.9338C16.7058 21.8805 17.506 21.694 18.2056 21.4225C18.9292 21.1414 19.5429 20.765 20.1539 20.1539C20.7658 19.542 21.1414 18.9292 21.4225 18.2056C21.694 17.506 21.8805 16.7058 21.9338 15.5353C21.9871 14.3621 22 13.9874 22 11C22 8.01258 21.9871 7.63786 21.9338 6.46472C21.8805 5.29416 21.694 4.49402 21.4225 3.79444C21.1414 3.07079 20.765 2.45714 20.1539 1.84608C19.542 1.23416 18.9292 0.858583 18.2056 0.577545C17.506 0.305961 16.7058 0.119462 15.5353 0.066177C14.3621 0.0128916 13.9874 0 11 0ZM11 5.35175C7.88023 5.35175 5.35089 7.88108 5.35089 11.0009C5.35089 14.1206 7.88023 16.65 11 16.65C14.1198 16.65 16.6491 14.1206 16.6491 11.0009C16.6491 7.88108 14.1198 5.35175 11 5.35175ZM11 14.6681C8.97515 14.6681 7.33276 13.0266 7.33276 11.0009C7.33276 8.97515 8.9743 7.33362 11 7.33362C13.0257 7.33362 14.6672 8.97515 14.6672 11.0009C14.6672 13.0266 13.0257 14.6681 11 14.6681ZM18.1927 5.12829C18.1927 5.8571 17.6014 6.44839 16.8726 6.44839C16.1438 6.44839 15.5525 5.8571 15.5525 5.12829C15.5525 4.39948 16.1438 3.80819 16.8726 3.80819C17.6014 3.80819 18.1927 4.39948 18.1927 5.12829Z" fill="white"/>
</svg>
