<svg width="20" height="20" viewBox="0 0 20 20" fill="none" xmlns="http://www.w3.org/2000/svg">
<g id="instagram">
<path id="Icon" d="M14.125 5.875H14.1317M6.25 2.5H13.75C15.8211 2.5 17.5 4.17893 17.5 6.25V13.75C17.5 15.8211 15.8211 17.5 13.75 17.5H6.25C4.17893 17.5 2.5 15.8211 2.5 13.75V6.25C2.5 4.17893 4.17893 2.5 6.25 2.5ZM13 9.5275C13.0925 10.1517 12.9859 10.7892 12.6953 11.3493C12.4047 11.9094 11.9448 12.3636 11.3812 12.6473C10.8175 12.9309 10.1788 13.0297 9.5558 12.9294C8.93281 12.8292 8.35728 12.5351 7.91109 12.0889C7.4649 11.6427 7.17076 11.0672 7.07051 10.4442C6.97027 9.82116 7.06901 9.18242 7.35271 8.61878C7.6364 8.05514 8.0906 7.5953 8.6507 7.30468C9.2108 7.01405 9.84828 6.90744 10.4725 7C11.1092 7.09441 11.6986 7.39109 12.1537 7.84623C12.6089 8.30136 12.9056 8.89081 13 9.5275Z" stroke="#8F5DFF" stroke-width="1.5" stroke-linecap="round" stroke-linejoin="round"/>
</g>
</svg>
