<svg width="22" height="31" viewBox="0 0 22 31" fill="none" xmlns="http://www.w3.org/2000/svg">
<path id="Vector" d="M6.20736 29.202C6.20736 29.9549 6.82791 30.7078 7.75872 30.7078H13.9641C14.8949 30.7078 15.5155 29.9549 15.5155 29.202V27.6962H6.20736V29.202ZM10.8614 0.591797C4.81115 0.591797 0.00195312 5.25978 0.00195312 11.1324C0.00195312 14.7463 1.86358 17.9085 4.65601 19.7155V23.1788C4.65601 23.9317 5.27655 24.6846 6.20736 24.6846H15.5155C16.4463 24.6846 17.0668 23.9317 17.0668 23.1788V19.7155C19.8593 17.7579 21.7209 14.5957 21.7209 11.1324C21.7209 5.25978 16.9117 0.591797 10.8614 0.591797Z" fill="#8F5DFF"/>
</svg>
