<svg width="21" height="22" viewBox="0 0 21 22" fill="none" xmlns="http://www.w3.org/2000/svg">
<path d="M15.5121 9.71289H4.48711C3.61726 9.71289 2.91211 10.418 2.91211 11.2879V16.8004C2.91211 17.6702 3.61726 18.3754 4.48711 18.3754H15.5121C16.382 18.3754 17.0871 17.6702 17.0871 16.8004V11.2879C17.0871 10.418 16.382 9.71289 15.5121 9.71289Z" stroke="white" stroke-width="1.575" stroke-linecap="round" stroke-linejoin="round"/>
<path d="M6.0625 9.7125V6.5625C6.0625 5.51821 6.47734 4.51669 7.21577 3.77827C7.95419 3.03984 8.95571 2.625 10 2.625C11.0443 2.625 12.0458 3.03984 12.7842 3.77827C13.5227 4.51669 13.9375 5.51821 13.9375 6.5625V9.7125" stroke="white" stroke-width="1.575" stroke-linecap="round" stroke-linejoin="round"/>
</svg>
