<svg width="32" height="31" viewBox="0 0 32 31" fill="none" xmlns="http://www.w3.org/2000/svg">
<path id="Vector" fill-rule="evenodd" clip-rule="evenodd" d="M28.1374 24.5695C27.5978 24.5695 27.0997 24.7105 26.6639 24.9321L19.8981 18.3449C20.3339 17.7607 20.6245 17.0959 20.7697 16.3506H23.1149C23.53 17.5189 24.6715 18.3449 26.0412 18.3449C27.7638 18.3449 29.1543 17.0355 29.1543 15.4038C29.1543 13.7721 27.7638 12.4627 26.0412 12.4627C24.6507 12.4627 23.4678 13.3289 23.0734 14.5376H20.749C20.6245 13.8325 20.3547 13.1879 19.9603 12.6238L26.7884 5.97615C27.1827 6.15745 27.6393 6.25817 28.1166 6.25817C29.8392 6.25817 31.2297 4.94878 31.2297 3.31707C31.2297 1.68537 29.8392 0.375977 28.1166 0.375977C26.3941 0.375977 25.0035 1.68537 25.0035 3.31707C25.0035 3.84083 25.1488 4.3243 25.4186 4.74733L18.6529 11.3346C18.051 10.9115 17.3454 10.6295 16.5775 10.4885V8.11146C17.8435 7.72872 18.7566 6.64091 18.7566 5.33152C18.7566 3.69982 17.3661 2.39043 15.6435 2.39043C13.921 2.39043 12.5305 3.69982 12.5305 5.33152C12.5305 6.64091 13.4644 7.74886 14.7304 8.13161V10.5087C13.9832 10.6295 13.2776 10.9115 12.6757 11.3346L5.90997 4.74733C6.15901 4.3243 6.30429 3.84083 6.30429 3.33722C6.3458 1.70551 4.95529 0.396121 3.23272 0.396121C1.51014 0.396121 0.119633 1.70551 0.119633 3.33722C0.119633 4.96892 1.51014 6.27831 3.23272 6.27831C3.71005 6.27831 4.16664 6.15745 4.58172 5.97615L11.389 12.6238C10.9739 13.208 10.7041 13.8526 10.5796 14.5778H8.25516C7.86083 13.3893 6.69861 12.503 5.28735 12.503C3.56478 12.503 2.17427 13.8124 2.17427 15.4441C2.17427 17.0758 3.56478 18.3852 5.28735 18.3852C6.65711 18.3852 7.81932 17.5391 8.21365 16.3909H10.5588C10.7041 17.1362 11.0154 17.8211 11.4513 18.4053L4.70624 24.9926C4.24966 24.7508 3.75156 24.6098 3.19121 24.6098C1.46864 24.6098 0.078125 25.9192 0.078125 27.5509C0.078125 29.1826 1.46864 30.492 3.19121 30.492C4.91378 30.492 6.30429 29.1826 6.30429 27.5509C6.30429 27.0876 6.17977 26.6645 5.99298 26.2818L12.8003 19.6543C13.3814 20.0169 14.0247 20.2787 14.7304 20.3996V22.7364C13.4644 23.099 12.5305 24.2069 12.5305 25.5365C12.5305 27.1682 13.921 28.4775 15.6435 28.4775C17.3661 28.4775 18.7566 27.1682 18.7566 25.5365C18.7566 24.2271 17.8435 23.1191 16.5775 22.7565V20.4198C17.2831 20.2989 17.9472 20.037 18.5283 19.6543L25.3148 26.2617C25.1073 26.6444 24.9828 27.0876 24.9828 27.5509C24.9828 29.1826 26.3733 30.492 28.0959 30.492C29.8184 30.492 31.209 29.1826 31.209 27.5509C31.209 25.9192 29.8184 24.6098 28.0959 24.6098L28.1374 24.5695Z" fill="#8F5DFF"/>
</svg>
