<svg width="516" height="48" viewBox="0 0 516 48" fill="none" xmlns="http://www.w3.org/2000/svg">
<path d="M388.412 12.7487C388.512 13.8051 388.257 14.9066 387.647 16.0531C387.037 17.1996 385.987 18.3528 384.498 19.5127C383.031 20.6704 381.054 21.8184 378.566 22.9566C378.819 24.1608 379.338 24.9923 380.122 25.4512C380.928 25.885 382.157 26.0239 383.811 25.868C385.304 25.7272 386.69 25.4458 387.971 25.0238C389.273 24.5767 390.473 24.0349 391.572 23.3984C391.176 22.6479 390.856 21.8324 390.611 20.9519C390.364 20.0485 390.191 19.08 390.094 18.0466C389.897 15.9567 390.065 14.18 390.599 12.7163C391.133 11.2526 391.873 10.1286 392.818 9.34436C393.761 8.53714 394.761 8.08372 395.818 7.9841C396.782 7.89315 397.684 7.99349 398.522 8.28514C399.384 8.57462 400.091 9.07555 400.645 9.78793C401.219 10.4752 401.562 11.4044 401.672 12.5756C401.848 14.4358 401.456 16.3032 400.498 18.1776C399.562 20.0499 398.266 21.7824 396.609 23.3752C397.335 23.9554 398.158 24.2022 399.077 24.1156C399.903 24.0376 400.801 23.7328 401.771 23.2012C402.74 22.6696 403.708 21.9991 404.674 21.1897C405.661 20.3552 406.61 19.478 407.519 18.5581C408.427 17.6153 409.222 16.7177 409.907 15.8654C410.15 15.4949 410.393 15.2519 410.637 15.1362C410.902 14.9954 411.149 14.9141 411.379 14.8925C411.769 14.8557 412.103 14.9516 412.379 15.1804C412.653 15.3863 412.811 15.7074 412.852 16.1437C412.872 16.3504 412.838 16.6084 412.751 16.9178C412.665 17.2272 412.488 17.5682 412.222 17.9408C411.459 18.9396 410.542 20.0224 409.47 21.1892C408.419 22.3309 407.294 23.4218 406.095 24.4616C404.895 25.5015 403.691 26.3681 402.482 27.0614C401.273 27.7546 400.129 28.1521 399.05 28.2539C396.937 28.4531 395.048 27.7045 393.382 26.0081C391.9 27.0051 390.321 27.8259 388.644 28.4706C386.992 29.1361 385.339 29.5468 383.686 29.7027C380.769 29.9778 378.559 29.5143 377.056 28.3122C375.552 27.1102 374.692 25.3609 374.476 23.0643C374.274 20.9286 374.365 18.939 374.747 17.0958C375.127 15.2295 375.703 13.5997 376.475 12.2062C377.245 10.7897 378.112 9.66532 379.077 8.83297C380.064 7.99846 381.051 7.53464 382.039 7.44152C383.991 7.25744 385.502 7.68257 386.573 8.71691C387.643 9.75126 388.257 11.0952 388.412 12.7487ZM378.458 19.5957C379.575 18.9111 380.605 18.1652 381.549 17.358C382.515 16.5486 383.274 15.7472 383.824 14.9538C384.398 14.1583 384.655 13.439 384.594 12.796C384.538 12.1989 384.368 11.7515 384.085 11.4538C383.802 11.1561 383.293 11.0419 382.558 11.1112C382.099 11.1545 381.64 11.4411 381.18 11.9711C380.741 12.4759 380.328 13.1403 379.943 13.9644C379.58 14.7864 379.259 15.6855 378.981 16.6617C378.725 17.6358 378.551 18.6138 378.458 19.5957ZM394.861 20.6902C395.954 19.4982 396.758 18.2059 397.276 16.8132C397.814 15.3955 398.015 13.9632 397.879 12.5164C397.863 12.3556 397.729 12.1597 397.476 11.9288C397.243 11.6727 396.92 11.5641 396.506 11.6031C395.886 11.6616 395.381 11.9525 394.99 12.476C394.599 12.9994 394.326 13.6623 394.17 14.4648C394.035 15.2421 394.009 16.0786 394.094 16.9743C394.23 18.4211 394.486 19.6597 394.861 20.6902Z" fill="white" fill-opacity="0.7"/>
<path d="M388.412 12.7487C388.512 13.8051 388.257 14.9066 387.647 16.0531C387.037 17.1996 385.987 18.3528 384.498 19.5127C383.031 20.6704 381.054 21.8184 378.566 22.9566C378.819 24.1608 379.338 24.9923 380.122 25.4512C380.928 25.885 382.157 26.0239 383.811 25.868C385.304 25.7272 386.69 25.4458 387.971 25.0238C389.273 24.5767 390.473 24.0349 391.572 23.3984C391.176 22.6479 390.856 21.8324 390.611 20.9519C390.364 20.0485 390.191 19.08 390.094 18.0466C389.897 15.9567 390.065 14.18 390.599 12.7163C391.133 11.2526 391.873 10.1286 392.818 9.34436C393.761 8.53714 394.761 8.08372 395.818 7.9841C396.782 7.89315 397.684 7.99349 398.522 8.28514C399.384 8.57462 400.091 9.07555 400.645 9.78793C401.219 10.4752 401.562 11.4044 401.672 12.5756C401.848 14.4358 401.456 16.3032 400.498 18.1776C399.562 20.0499 398.266 21.7824 396.609 23.3752C397.335 23.9554 398.158 24.2022 399.077 24.1156C399.903 24.0376 400.801 23.7328 401.771 23.2012C402.74 22.6696 403.708 21.9991 404.674 21.1897C405.661 20.3552 406.61 19.478 407.519 18.5581C408.427 17.6153 409.222 16.7177 409.907 15.8654C410.15 15.4949 410.393 15.2519 410.637 15.1362C410.902 14.9954 411.149 14.9141 411.379 14.8925C411.769 14.8557 412.103 14.9516 412.379 15.1804C412.653 15.3863 412.811 15.7074 412.852 16.1437C412.872 16.3504 412.838 16.6084 412.751 16.9178C412.665 17.2272 412.488 17.5682 412.222 17.9408C411.459 18.9396 410.542 20.0224 409.47 21.1892C408.419 22.3309 407.294 23.4218 406.095 24.4616C404.895 25.5015 403.691 26.3681 402.482 27.0614C401.273 27.7546 400.129 28.1521 399.05 28.2539C396.937 28.4531 395.048 27.7045 393.382 26.0081C391.9 27.0051 390.321 27.8259 388.644 28.4706C386.992 29.1361 385.339 29.5468 383.686 29.7027C380.769 29.9778 378.559 29.5143 377.056 28.3122C375.552 27.1102 374.692 25.3609 374.476 23.0643C374.274 20.9286 374.365 18.939 374.747 17.0958C375.127 15.2295 375.703 13.5997 376.475 12.2062C377.245 10.7897 378.112 9.66532 379.077 8.83297C380.064 7.99846 381.051 7.53464 382.039 7.44152C383.991 7.25744 385.502 7.68257 386.573 8.71691C387.643 9.75126 388.257 11.0952 388.412 12.7487ZM378.458 19.5957C379.575 18.9111 380.605 18.1652 381.549 17.358C382.515 16.5486 383.274 15.7472 383.824 14.9538C384.398 14.1583 384.655 13.439 384.594 12.796C384.538 12.1989 384.368 11.7515 384.085 11.4538C383.802 11.1561 383.293 11.0419 382.558 11.1112C382.099 11.1545 381.64 11.4411 381.18 11.9711C380.741 12.4759 380.328 13.1403 379.943 13.9644C379.58 14.7864 379.259 15.6855 378.981 16.6617C378.725 17.6358 378.551 18.6138 378.458 19.5957ZM394.861 20.6902C395.954 19.4982 396.758 18.2059 397.276 16.8132C397.814 15.3955 398.015 13.9632 397.879 12.5164C397.863 12.3556 397.729 12.1597 397.476 11.9288C397.243 11.6727 396.92 11.5641 396.506 11.6031C395.886 11.6616 395.381 11.9525 394.99 12.476C394.599 12.9994 394.326 13.6623 394.17 14.4648C394.035 15.2421 394.009 16.0786 394.094 16.9743C394.23 18.4211 394.486 19.6597 394.861 20.6902Z" fill="url(#paint0_linear_6133_29021)"/>
<path d="M360.705 32.5812C360.131 32.6353 359.617 32.4752 359.165 32.1008C358.736 31.7243 358.484 31.1456 358.41 30.3647C358.378 30.0203 358.371 29.4533 358.389 28.6638C358.428 27.8492 358.479 26.9176 358.543 25.869C358.629 24.8182 358.699 23.7226 358.754 22.5821C358.832 21.4395 358.88 20.3575 358.9 19.3362C358.942 18.3128 358.953 17.4429 358.932 16.7266C358.895 15.8496 359.066 15.2079 359.445 14.8015C359.822 14.3721 360.297 14.1303 360.871 14.0762C361.33 14.0329 361.755 14.1087 362.144 14.3037C362.554 14.4736 362.837 14.8987 362.994 15.579C363.172 16.2341 363.274 17.1976 363.301 18.4693C364.138 16.5368 365.006 14.7984 365.903 13.2542C366.823 11.7077 367.817 10.4555 368.885 9.49749C370.654 7.87093 372.309 6.98509 373.847 6.83999C374.72 6.7577 375.312 6.89876 375.625 7.26318C375.937 7.62761 376.113 8.0165 376.152 8.42988C376.178 8.70547 376.133 8.96458 376.017 9.20723C375.924 9.44771 375.694 9.71267 375.327 10.0021C374.961 10.2915 374.395 10.6808 373.63 11.17C372.603 11.823 371.603 12.6471 370.631 13.6424C369.682 14.6355 368.757 15.8812 367.856 17.3795C366.954 18.8779 366.072 20.6988 365.208 22.8424C364.344 24.9859 363.483 27.5231 362.624 30.4539C362.491 31.2543 362.241 31.7991 361.875 32.0886C361.531 32.3758 361.141 32.54 360.705 32.5812Z" fill="white" fill-opacity="0.7"/>
<path d="M360.705 32.5812C360.131 32.6353 359.617 32.4752 359.165 32.1008C358.736 31.7243 358.484 31.1456 358.41 30.3647C358.378 30.0203 358.371 29.4533 358.389 28.6638C358.428 27.8492 358.479 26.9176 358.543 25.869C358.629 24.8182 358.699 23.7226 358.754 22.5821C358.832 21.4395 358.88 20.3575 358.9 19.3362C358.942 18.3128 358.953 17.4429 358.932 16.7266C358.895 15.8496 359.066 15.2079 359.445 14.8015C359.822 14.3721 360.297 14.1303 360.871 14.0762C361.33 14.0329 361.755 14.1087 362.144 14.3037C362.554 14.4736 362.837 14.8987 362.994 15.579C363.172 16.2341 363.274 17.1976 363.301 18.4693C364.138 16.5368 365.006 14.7984 365.903 13.2542C366.823 11.7077 367.817 10.4555 368.885 9.49749C370.654 7.87093 372.309 6.98509 373.847 6.83999C374.72 6.7577 375.312 6.89876 375.625 7.26318C375.937 7.62761 376.113 8.0165 376.152 8.42988C376.178 8.70547 376.133 8.96458 376.017 9.20723C375.924 9.44771 375.694 9.71267 375.327 10.0021C374.961 10.2915 374.395 10.6808 373.63 11.17C372.603 11.823 371.603 12.6471 370.631 13.6424C369.682 14.6355 368.757 15.8812 367.856 17.3795C366.954 18.8779 366.072 20.6988 365.208 22.8424C364.344 24.9859 363.483 27.5231 362.624 30.4539C362.491 31.2543 362.241 31.7991 361.875 32.0886C361.531 32.3758 361.141 32.54 360.705 32.5812Z" fill="url(#paint1_linear_6133_29021)"/>
<path d="M342.447 33.3199C341.85 33.3762 341.387 33.1303 341.057 32.5821C340.727 32.034 340.493 31.025 340.355 29.5552C340.16 27.4883 340.08 25.2947 340.116 22.9744C340.173 20.6289 340.293 18.0921 340.476 15.364C340.665 13.1914 341.44 11.4617 342.802 10.1748C344.186 8.88575 346.095 7.75576 348.529 6.78481C350.048 6.17824 351.627 5.6007 353.266 5.05219C354.906 4.50369 356.45 4.04531 357.898 3.67705C359.367 3.28366 360.584 3.04149 361.548 2.95053C362.283 2.88123 362.868 2.94192 363.303 3.13259C363.738 3.32326 364.052 3.58325 364.246 3.91257C364.46 4.21676 364.58 4.50665 364.606 4.78224C364.647 5.21858 364.58 5.61873 364.406 5.98271C364.232 6.34668 363.809 6.65301 363.137 6.9017C362.847 7.02172 362.231 7.24203 361.288 7.56264C360.366 7.85812 359.23 8.22011 357.88 8.6486C356.554 9.07492 355.148 9.53179 353.665 10.0192C352.18 10.4837 350.741 10.9553 349.35 11.434C347.988 11.9795 347.002 12.5822 346.393 13.2421C345.804 13.8769 345.458 14.7552 345.355 15.877C345.331 16.111 345.315 16.4368 345.308 16.8545C346.222 16.4672 347.21 16.1308 348.272 15.8453C349.334 15.5597 350.32 15.3277 351.23 15.1493C352.14 14.9708 352.813 14.8609 353.249 14.8198C353.708 14.7765 354.198 14.8114 354.719 14.9245C355.26 15.0125 355.728 15.1884 356.124 15.4523C356.54 15.6911 356.769 16.0286 356.81 16.465C356.849 16.8784 356.724 17.2725 356.435 17.6473C356.144 17.9991 355.519 18.3708 354.559 18.7625C354.359 18.8509 353.897 18.9872 353.173 19.1713C352.472 19.3532 351.636 19.5827 350.666 19.8595C349.717 20.1112 348.746 20.3881 347.755 20.69C346.787 20.9899 345.935 21.2903 345.199 21.5914C345.155 22.8467 345.123 24.1009 345.102 25.3541C345.081 26.6072 345.068 27.6974 345.063 28.6247C345.056 29.529 345.04 30.0981 345.015 30.3321C344.958 31.1948 344.688 31.8922 344.205 32.4243C343.722 32.9564 343.136 33.2549 342.447 33.3199Z" fill="white" fill-opacity="0.7"/>
<path d="M342.447 33.3199C341.85 33.3762 341.387 33.1303 341.057 32.5821C340.727 32.034 340.493 31.025 340.355 29.5552C340.16 27.4883 340.08 25.2947 340.116 22.9744C340.173 20.6289 340.293 18.0921 340.476 15.364C340.665 13.1914 341.44 11.4617 342.802 10.1748C344.186 8.88575 346.095 7.75576 348.529 6.78481C350.048 6.17824 351.627 5.6007 353.266 5.05219C354.906 4.50369 356.45 4.04531 357.898 3.67705C359.367 3.28366 360.584 3.04149 361.548 2.95053C362.283 2.88123 362.868 2.94192 363.303 3.13259C363.738 3.32326 364.052 3.58325 364.246 3.91257C364.46 4.21676 364.58 4.50665 364.606 4.78224C364.647 5.21858 364.58 5.61873 364.406 5.98271C364.232 6.34668 363.809 6.65301 363.137 6.9017C362.847 7.02172 362.231 7.24203 361.288 7.56264C360.366 7.85812 359.23 8.22011 357.88 8.6486C356.554 9.07492 355.148 9.53179 353.665 10.0192C352.18 10.4837 350.741 10.9553 349.35 11.434C347.988 11.9795 347.002 12.5822 346.393 13.2421C345.804 13.8769 345.458 14.7552 345.355 15.877C345.331 16.111 345.315 16.4368 345.308 16.8545C346.222 16.4672 347.21 16.1308 348.272 15.8453C349.334 15.5597 350.32 15.3277 351.23 15.1493C352.14 14.9708 352.813 14.8609 353.249 14.8198C353.708 14.7765 354.198 14.8114 354.719 14.9245C355.26 15.0125 355.728 15.1884 356.124 15.4523C356.54 15.6911 356.769 16.0286 356.81 16.465C356.849 16.8784 356.724 17.2725 356.435 17.6473C356.144 17.9991 355.519 18.3708 354.559 18.7625C354.359 18.8509 353.897 18.9872 353.173 19.1713C352.472 19.3532 351.636 19.5827 350.666 19.8595C349.717 20.1112 348.746 20.3881 347.755 20.69C346.787 20.9899 345.935 21.2903 345.199 21.5914C345.155 22.8467 345.123 24.1009 345.102 25.3541C345.081 26.6072 345.068 27.6974 345.063 28.6247C345.056 29.529 345.04 30.0981 345.015 30.3321C344.958 31.1948 344.688 31.8922 344.205 32.4243C343.722 32.9564 343.136 33.2549 342.447 33.3199Z" fill="url(#paint2_linear_6133_29021)"/>
<path fill-rule="evenodd" clip-rule="evenodd" d="M364.078 39.7714C358.542 40.2826 353.255 40.7709 348.894 41.1325C348.18 41.1917 347.493 40.878 347.36 40.4318C347.228 39.9855 347.699 39.5758 348.413 39.5166C352.754 39.1566 358.023 38.6701 363.565 38.1583C363.994 38.1187 364.423 38.079 364.855 38.0392C370.861 37.4848 377.122 36.9106 382.796 36.4458C388.461 35.9817 393.577 35.6235 397.284 35.5051C399.124 35.4462 400.688 35.4438 401.817 35.5294C402.365 35.5708 402.932 35.641 403.401 35.7802C403.861 35.917 404.62 36.2585 404.588 36.8787C404.572 37.1932 404.34 37.4311 404.128 37.5871C403.913 37.7445 403.646 37.8713 403.385 37.9743C402.864 38.1807 402.17 38.3685 401.385 38.5435C399.801 38.8966 397.593 39.2525 395.009 39.6047C393.381 39.8267 391.586 40.0495 389.677 40.2713L405.923 39.0714C406.639 39.0185 407.319 39.338 407.442 39.785C407.564 40.2321 407.083 40.6373 406.367 40.6902L348.677 44.9508C347.961 45.0037 347.281 44.6841 347.159 44.2371C347.118 44.0874 347.144 43.9424 347.225 43.8137C347.183 43.7287 347.163 43.6388 347.168 43.5466C347.18 43.3221 347.332 43.1641 347.437 43.0798C347.544 42.9946 347.657 42.9394 347.727 42.9087C347.866 42.8475 348.006 42.8091 348.092 42.7874C348.277 42.7407 348.497 42.7011 348.714 42.6666C349.161 42.5955 349.786 42.5167 350.541 42.4314C352.06 42.2597 354.215 42.0496 356.779 41.8104C358.677 41.6333 360.801 41.44 363.069 41.2336C366.952 40.8802 371.259 40.4883 375.576 40.0734C382.413 39.4163 389.22 38.7067 394.318 38.0118C396.643 37.6949 398.574 37.3861 399.979 37.0933C399.288 37.0902 398.478 37.1035 397.554 37.133C393.959 37.2479 388.931 37.5985 383.272 38.062C377.623 38.5249 371.382 39.0972 365.373 39.6518C364.94 39.6918 364.508 39.7317 364.078 39.7714Z" fill="url(#paint3_linear_6133_29021)"/>
<path d="M3.26062 32V9.15625H8.10437V32H3.26062ZM23.0812 14.2031C24.9458 14.2031 26.4458 14.7135 27.5812 15.7344C28.7167 16.7448 29.2844 18.3698 29.2844 20.6094V32H24.5187V21.7969C24.5187 20.5469 24.2896 19.6042 23.8312 18.9688C23.3833 18.3333 22.675 18.0156 21.7062 18.0156C20.2479 18.0156 19.2531 18.5104 18.7219 19.5C18.1906 20.4896 17.925 21.9167 17.925 23.7812V32H13.1594V14.5312H16.8L17.4406 16.7656H17.7062C18.0812 16.1615 18.5448 15.6719 19.0969 15.2969C19.6594 14.9219 20.2792 14.6458 20.9562 14.4688C21.6437 14.2917 22.3521 14.2031 23.0812 14.2031ZM38.0269 32L31.3706 14.5312H36.355L39.73 24.4844C39.9175 25.0677 40.0633 25.6823 40.1675 26.3281C40.2821 26.974 40.3602 27.5521 40.4019 28.0625H40.5269C40.5581 27.5104 40.631 26.9219 40.7456 26.2969C40.8706 25.6719 41.0321 25.0677 41.23 24.4844L44.5894 14.5312H49.5737L42.9175 32H38.0269ZM56.535 14.5312V32H51.7694V14.5312H56.535ZM54.16 7.6875C54.8683 7.6875 55.4777 7.85417 55.9881 8.1875C56.4985 8.51042 56.7537 9.11979 56.7537 10.0156C56.7537 10.901 56.4985 11.5156 55.9881 11.8594C55.4777 12.1927 54.8683 12.3594 54.16 12.3594C53.4412 12.3594 52.8267 12.1927 52.3162 11.8594C51.8162 11.5156 51.5662 10.901 51.5662 10.0156C51.5662 9.11979 51.8162 8.51042 52.3162 8.1875C52.8267 7.85417 53.4412 7.6875 54.16 7.6875ZM68.59 28.5156C69.1108 28.5156 69.616 28.4635 70.1056 28.3594C70.6056 28.2552 71.1004 28.125 71.59 27.9688V31.5156C71.0796 31.7448 70.4442 31.9323 69.6837 32.0781C68.9337 32.2344 68.1108 32.3125 67.215 32.3125C66.1733 32.3125 65.2358 32.1458 64.4025 31.8125C63.5796 31.4688 62.9285 30.8802 62.4494 30.0469C61.9806 29.2031 61.7462 28.0312 61.7462 26.5312V18.1094H59.465V16.0938L62.09 14.5L63.465 10.8125H66.5119V14.5312H71.4025V18.1094H66.5119V26.5312C66.5119 27.1979 66.6994 27.6979 67.0744 28.0312C67.4598 28.3542 67.965 28.5156 68.59 28.5156ZM82.02 14.2031C83.6346 14.2031 85.0252 14.5156 86.1919 15.1406C87.3585 15.7552 88.2596 16.651 88.895 17.8281C89.5304 19.0052 89.8481 20.4427 89.8481 22.1406V24.4531H78.5825C78.6346 25.7969 79.0356 26.8542 79.7856 27.625C80.546 28.3854 81.5981 28.7656 82.9419 28.7656C84.0565 28.7656 85.0773 28.651 86.0044 28.4219C86.9315 28.1927 87.8846 27.849 88.8637 27.3906V31.0781C87.9992 31.5052 87.0929 31.8177 86.145 32.0156C85.2075 32.2135 84.0669 32.3125 82.7231 32.3125C80.9731 32.3125 79.421 31.9896 78.0669 31.3438C76.7231 30.6979 75.6658 29.7135 74.895 28.3906C74.1346 27.0677 73.7544 25.401 73.7544 23.3906C73.7544 21.349 74.0981 19.651 74.7856 18.2969C75.4835 16.9323 76.4523 15.9115 77.6919 15.2344C78.9315 14.5469 80.3742 14.2031 82.02 14.2031ZM82.0512 17.5938C81.1242 17.5938 80.3533 17.8906 79.7387 18.4844C79.1346 19.0781 78.7856 20.0104 78.6919 21.2812H85.3794C85.369 20.5729 85.2387 19.9427 84.9887 19.3906C84.7492 18.8385 84.3846 18.401 83.895 18.0781C83.4158 17.7552 82.8012 17.5938 82.0512 17.5938ZM115.755 32L114.099 26.5625H105.771L104.114 32H98.8956L106.958 9.0625H112.88L120.974 32H115.755ZM112.942 22.5L111.286 17.1875C111.182 16.8333 111.041 16.3802 110.864 15.8281C110.698 15.2656 110.526 14.6979 110.349 14.125C110.182 13.5417 110.047 13.0365 109.942 12.6094C109.838 13.0365 109.692 13.5677 109.505 14.2031C109.328 14.8281 109.156 15.4219 108.989 15.9844C108.823 16.5469 108.703 16.9479 108.63 17.1875L106.989 22.5H112.942ZM136.302 32H131.537V9.15625H144.631V13.125H136.302V19.0156H144.052V22.9688H136.302V32ZM158.154 14.2031C158.394 14.2031 158.67 14.2188 158.982 14.25C159.305 14.2708 159.566 14.3021 159.764 14.3438L159.404 18.8125C159.248 18.7604 159.024 18.724 158.732 18.7031C158.451 18.6719 158.206 18.6562 157.998 18.6562C157.384 18.6562 156.785 18.7344 156.201 18.8906C155.628 19.0469 155.113 19.3021 154.654 19.6562C154.196 20 153.831 20.4583 153.561 21.0312C153.3 21.5938 153.17 22.2865 153.17 23.1094V32H148.404V14.5312H152.014L152.717 17.4688H152.951C153.295 16.875 153.722 16.3333 154.232 15.8438C154.753 15.3438 155.342 14.9479 155.998 14.6562C156.665 14.3542 157.384 14.2031 158.154 14.2031ZM167.381 14.5312V32H162.616V14.5312H167.381ZM165.006 7.6875C165.715 7.6875 166.324 7.85417 166.834 8.1875C167.345 8.51042 167.6 9.11979 167.6 10.0156C167.6 10.901 167.345 11.5156 166.834 11.8594C166.324 12.1927 165.715 12.3594 165.006 12.3594C164.287 12.3594 163.673 12.1927 163.162 11.8594C162.662 11.5156 162.412 10.901 162.412 10.0156C162.412 9.11979 162.662 8.51042 163.162 8.1875C163.673 7.85417 164.287 7.6875 165.006 7.6875ZM179.28 14.2031C180.895 14.2031 182.285 14.5156 183.452 15.1406C184.619 15.7552 185.52 16.651 186.155 17.8281C186.79 19.0052 187.108 20.4427 187.108 22.1406V24.4531H175.842C175.895 25.7969 176.296 26.8542 177.046 27.625C177.806 28.3854 178.858 28.7656 180.202 28.7656C181.316 28.7656 182.337 28.651 183.264 28.4219C184.191 28.1927 185.145 27.849 186.124 27.3906V31.0781C185.259 31.5052 184.353 31.8177 183.405 32.0156C182.467 32.2135 181.327 32.3125 179.983 32.3125C178.233 32.3125 176.681 31.9896 175.327 31.3438C173.983 30.6979 172.926 29.7135 172.155 28.3906C171.395 27.0677 171.014 25.401 171.014 23.3906C171.014 21.349 171.358 19.651 172.046 18.2969C172.744 16.9323 173.712 15.9115 174.952 15.2344C176.191 14.5469 177.634 14.2031 179.28 14.2031ZM179.311 17.5938C178.384 17.5938 177.613 17.8906 176.999 18.4844C176.395 19.0781 176.046 20.0104 175.952 21.2812H182.639C182.629 20.5729 182.499 19.9427 182.249 19.3906C182.009 18.8385 181.645 18.401 181.155 18.0781C180.676 17.7552 180.061 17.5938 179.311 17.5938ZM200.585 14.2031C202.45 14.2031 203.95 14.7135 205.085 15.7344C206.22 16.7448 206.788 18.3698 206.788 20.6094V32H202.022V21.7969C202.022 20.5469 201.793 19.6042 201.335 18.9688C200.887 18.3333 200.179 18.0156 199.21 18.0156C197.752 18.0156 196.757 18.5104 196.226 19.5C195.694 20.4896 195.429 21.9167 195.429 23.7812V32H190.663V14.5312H194.304L194.944 16.7656H195.21C195.585 16.1615 196.049 15.6719 196.601 15.2969C197.163 14.9219 197.783 14.6458 198.46 14.4688C199.147 14.2917 199.856 14.2031 200.585 14.2031ZM216.906 32.3125C214.958 32.3125 213.369 31.5521 212.14 30.0312C210.921 28.5 210.312 26.2552 210.312 23.2969C210.312 20.3073 210.932 18.0469 212.171 16.5156C213.411 14.974 215.031 14.2031 217.031 14.2031C217.864 14.2031 218.598 14.3177 219.234 14.5469C219.869 14.776 220.416 15.0833 220.874 15.4688C221.343 15.8542 221.739 16.2865 222.062 16.7656H222.218C222.156 16.4323 222.077 15.9427 221.984 15.2969C221.9 14.6406 221.859 13.9688 221.859 13.2812V7.6875H226.64V32H222.984L222.062 29.7344H221.859C221.557 30.2135 221.176 30.651 220.718 31.0469C220.27 31.4323 219.734 31.7396 219.109 31.9688C218.484 32.1979 217.749 32.3125 216.906 32.3125ZM218.577 28.5156C219.88 28.5156 220.796 28.1302 221.327 27.3594C221.869 26.5781 222.156 25.4062 222.187 23.8438V23.3281C222.187 21.6302 221.926 20.3333 221.406 19.4375C220.885 18.5312 219.916 18.0781 218.499 18.0781C217.447 18.0781 216.624 18.5312 216.031 19.4375C215.437 20.3438 215.14 21.651 215.14 23.3594C215.14 25.0677 215.437 26.3542 216.031 27.2188C216.635 28.0833 217.484 28.5156 218.577 28.5156ZM235.742 28.2812L235.976 28.6406C235.789 29.3906 235.544 30.1979 235.242 31.0625C234.95 31.9271 234.627 32.7917 234.273 33.6562C233.929 34.5208 233.58 35.3438 233.226 36.125H229.789C229.997 35.2812 230.2 34.3958 230.398 33.4688C230.596 32.5417 230.778 31.6302 230.945 30.7344C231.122 29.8385 231.263 29.0208 231.367 28.2812H235.742ZM257.149 19.1719H266.211V31.0156C265.013 31.4115 263.769 31.7292 262.477 31.9688C261.185 32.1979 259.722 32.3125 258.086 32.3125C255.815 32.3125 253.888 31.8646 252.305 30.9688C250.722 30.0729 249.519 28.75 248.696 27C247.873 25.25 247.461 23.099 247.461 20.5469C247.461 18.151 247.92 16.0781 248.836 14.3281C249.763 12.5781 251.112 11.224 252.883 10.2656C254.664 9.30729 256.836 8.82812 259.399 8.82812C260.607 8.82812 261.8 8.95833 262.977 9.21875C264.154 9.47917 265.222 9.81771 266.18 10.2344L264.571 14.1094C263.873 13.7552 263.076 13.4583 262.18 13.2188C261.284 12.9792 260.347 12.8594 259.367 12.8594C257.961 12.8594 256.737 13.1823 255.696 13.8281C254.664 14.474 253.862 15.3802 253.289 16.5469C252.727 17.7031 252.446 19.0677 252.446 20.6406C252.446 22.1302 252.649 23.4531 253.055 24.6094C253.461 25.7552 254.102 26.6562 254.977 27.3125C255.852 27.9583 256.992 28.2812 258.399 28.2812C259.086 28.2812 259.664 28.25 260.133 28.1875C260.612 28.1146 261.06 28.0417 261.477 27.9688V23.2031H257.149V19.1719ZM278.172 14.2031C279.787 14.2031 281.178 14.5156 282.344 15.1406C283.511 15.7552 284.412 16.651 285.047 17.8281C285.683 19.0052 286.001 20.4427 286.001 22.1406V24.4531H274.735C274.787 25.7969 275.188 26.8542 275.938 27.625C276.699 28.3854 277.751 28.7656 279.094 28.7656C280.209 28.7656 281.23 28.651 282.157 28.4219C283.084 28.1927 284.037 27.849 285.016 27.3906V31.0781C284.152 31.5052 283.245 31.8177 282.297 32.0156C281.36 32.2135 280.219 32.3125 278.876 32.3125C277.126 32.3125 275.574 31.9896 274.219 31.3438C272.876 30.6979 271.818 29.7135 271.047 28.3906C270.287 27.0677 269.907 25.401 269.907 23.3906C269.907 21.349 270.251 19.651 270.938 18.2969C271.636 16.9323 272.605 15.9115 273.844 15.2344C275.084 14.5469 276.527 14.2031 278.172 14.2031ZM278.204 17.5938C277.277 17.5938 276.506 17.8906 275.891 18.4844C275.287 19.0781 274.938 20.0104 274.844 21.2812H281.532C281.521 20.5729 281.391 19.9427 281.141 19.3906C280.902 18.8385 280.537 18.401 280.047 18.0781C279.568 17.7552 278.954 17.5938 278.204 17.5938ZM296.915 28.5156C297.436 28.5156 297.941 28.4635 298.431 28.3594C298.931 28.2552 299.425 28.125 299.915 27.9688V31.5156C299.405 31.7448 298.769 31.9323 298.009 32.0781C297.259 32.2344 296.436 32.3125 295.54 32.3125C294.498 32.3125 293.561 32.1458 292.728 31.8125C291.905 31.4688 291.254 30.8802 290.774 30.0469C290.306 29.2031 290.071 28.0312 290.071 26.5312V18.1094H287.79V16.0938L290.415 14.5L291.79 10.8125H294.837V14.5312H299.728V18.1094H294.837V26.5312C294.837 27.1979 295.024 27.6979 295.399 28.0312C295.785 28.3542 296.29 28.5156 296.915 28.5156ZM325.494 32L323.837 26.5625H315.509L313.853 32H308.634L316.697 9.0625H322.619L330.712 32H325.494ZM322.681 22.5L321.025 17.1875C320.921 16.8333 320.78 16.3802 320.603 15.8281C320.436 15.2656 320.265 14.6979 320.087 14.125C319.921 13.5417 319.785 13.0365 319.681 12.6094C319.577 13.0365 319.431 13.5677 319.244 14.2031C319.067 14.8281 318.895 15.4219 318.728 15.9844C318.561 16.5469 318.442 16.9479 318.369 17.1875L316.728 22.5H322.681ZM450.613 9.15625L444.801 32H439.285L436.191 20C436.129 19.7708 436.045 19.4219 435.941 18.9531C435.837 18.4844 435.728 17.974 435.613 17.4219C435.499 16.8594 435.394 16.3333 435.301 15.8438C435.217 15.3438 435.16 14.9479 435.129 14.6562C435.098 14.9479 435.035 15.3385 434.941 15.8281C434.858 16.3177 434.759 16.8385 434.644 17.3906C434.54 17.9427 434.436 18.4583 434.332 18.9375C434.228 19.4167 434.144 19.7812 434.082 20.0312L431.004 32H425.504L419.676 9.15625H424.441L427.363 21.625C427.446 22 427.54 22.4479 427.644 22.9688C427.759 23.4896 427.868 24.0365 427.973 24.6094C428.087 25.1719 428.186 25.7188 428.269 26.25C428.363 26.7708 428.431 27.224 428.473 27.6094C428.525 27.2135 428.592 26.7552 428.676 26.2344C428.759 25.7031 428.848 25.1667 428.941 24.625C429.045 24.0729 429.15 23.5625 429.254 23.0938C429.358 22.625 429.452 22.2448 429.535 21.9531L432.863 9.15625H437.441L440.769 21.9531C440.842 22.2344 440.926 22.6146 441.019 23.0938C441.124 23.5625 441.228 24.0729 441.332 24.625C441.436 25.1771 441.53 25.7188 441.613 26.25C441.707 26.7708 441.775 27.224 441.816 27.6094C441.889 27.0885 441.988 26.4583 442.113 25.7188C442.249 24.9688 442.389 24.224 442.535 23.4844C442.691 22.7448 442.827 22.125 442.941 21.625L445.848 9.15625H450.613ZM466.324 32H453.168V9.15625H466.324V13.125H458.012V18.1406H465.746V22.1094H458.012V28H466.324V32ZM483.942 32H470.786V9.15625H483.942V13.125H475.629V18.1406H483.364V22.1094H475.629V28H483.942V32ZM506.778 32H501.278L495.294 22.375L493.247 23.8438V32H488.403V9.15625H493.247V19.6094C493.57 19.1615 493.887 18.7135 494.2 18.2656C494.512 17.8177 494.83 17.3698 495.153 16.9219L501.341 9.15625H506.716L498.747 19.2656L506.778 32ZM512.958 24.4219H509.146L508.349 9.15625H513.755L512.958 24.4219ZM508.286 29.7656C508.286 28.7865 508.552 28.099 509.083 27.7031C509.625 27.3073 510.276 27.1094 511.036 27.1094C511.776 27.1094 512.411 27.3073 512.943 27.7031C513.484 28.099 513.755 28.7865 513.755 29.7656C513.755 30.7031 513.484 31.3802 512.943 31.7969C512.411 32.2135 511.776 32.4219 511.036 32.4219C510.276 32.4219 509.625 32.2135 509.083 31.7969C508.552 31.3802 508.286 30.7031 508.286 29.7656Z" fill="white"/>
<defs>
<linearGradient id="paint0_linear_6133_29021" x1="408.625" y1="6.32074" x2="365.27" y2="68.1195" gradientUnits="userSpaceOnUse">
<stop stop-color="#2E9BFF"/>
<stop offset="1" stop-color="#FF14FF"/>
</linearGradient>
<linearGradient id="paint1_linear_6133_29021" x1="412.343" y1="5.91679" x2="368.988" y2="67.7156" gradientUnits="userSpaceOnUse">
<stop stop-color="#2E9BFF"/>
<stop offset="1" stop-color="#FF14FF"/>
</linearGradient>
<linearGradient id="paint2_linear_6133_29021" x1="416.455" y1="5.7972" x2="373.1" y2="67.596" gradientUnits="userSpaceOnUse">
<stop stop-color="#2E9BFF"/>
<stop offset="1" stop-color="#FF14FF"/>
</linearGradient>
<linearGradient id="paint3_linear_6133_29021" x1="401.978" y1="37.529" x2="394.878" y2="56.8956" gradientUnits="userSpaceOnUse">
<stop stop-color="#2E9BFF"/>
<stop offset="1" stop-color="#FF14FF"/>
</linearGradient>
</defs>
</svg>
