<svg width="482" height="359" viewBox="0 0 482 359" fill="none" xmlns="http://www.w3.org/2000/svg">
<path fill-rule="evenodd" clip-rule="evenodd" d="M474.537 244.57C472.703 243.326 470.263 243 468.067 243C459.491 243 451.43 246.182 444.466 250.923C440.65 253.521 437.236 256.829 434.222 260.274C432.483 262.262 430.932 264.413 429.834 266.805C429.093 268.42 428.584 270.102 428.239 271.837C427.819 273.952 427.485 276.11 427.334 278.26C427.275 279.107 426.783 283.599 428.191 283.675C428.183 283.786 428.181 283.891 428.189 283.986C425.133 288.765 423.244 294.366 421.493 299.677C419.97 304.298 418.612 308.958 417.731 313.738C416.57 320.032 415.808 326.42 415.446 332.805C415.368 334.177 415.314 335.549 415.268 336.923C415.229 338.095 415.19 339.267 415.151 340.439C415.108 341.752 414.877 343.264 415.086 344.57C415.268 345.707 416.252 345.534 416.295 344.403C416.348 343.037 416.339 341.668 416.399 340.3C416.479 338.485 416.561 336.671 416.649 334.857C417.268 322.254 419.587 309.836 423.867 297.931C425.599 293.114 427.584 288.553 430.135 284.097C432.378 280.179 435.076 276.385 437.833 272.852C440.514 269.419 443.3 266.065 446.584 263.157C449.249 260.796 452.181 258.74 455.194 256.826C459.021 254.396 462.841 252.025 466.987 250.16C469.142 249.19 471.338 248.322 473.51 247.392C473.901 247.224 474.32 247.062 474.696 246.868C475.949 246.221 475.537 245.248 474.537 244.57Z" fill="#C1DEE2"/>
<path fill-rule="evenodd" clip-rule="evenodd" d="M429.383 288.589C432.862 288.589 435.957 289.041 439.162 290.423C441.928 291.616 444.45 293.196 446.897 294.915C450.341 297.333 453.053 300.148 454.951 303.877C456.085 306.105 456.917 309.258 456.155 311.688C455.258 314.55 452.795 316.937 449.55 316.433C447.544 316.121 445.705 314.793 444.18 313.543C442.356 312.048 440.895 310.249 439.69 308.252C437.723 304.995 436.567 301.312 434.896 297.908C434.103 296.293 433.337 294.665 432.388 293.13C431.917 292.37 431.417 291.617 430.704 291.052C430.322 290.749 428.713 290.226 429.329 289.548C420.308 289.666 412.317 296.594 410.586 305.169C410.425 305.968 410.299 306.774 410.165 307.578C410.081 308.085 410.115 309.958 409.661 310.282C408.66 310.998 409.081 308.824 409.124 308.511C409.235 307.702 409.354 306.894 409.478 306.087C410.154 301.699 412.108 297.619 415.366 294.489C419.092 290.91 424.119 288.589 429.383 288.589Z" fill="#89C5CC"/>
<path fill-rule="evenodd" clip-rule="evenodd" d="M314.21 82.7036C313.962 82.5232 313.374 82.4592 313.1 82.4051C311.961 82.1807 310.788 82.083 309.628 82.083C306.049 82.0884 302.412 82.4397 298.893 83.0477C296.658 83.4337 293.957 84.7326 291.734 84.0272C287.862 82.798 283.948 82.8584 280.274 84.6131C276.915 86.2177 274.365 89.2651 272.877 92.5578C272.653 93.0549 271.742 94.8843 271.484 96.1176C271.374 96.3697 271.268 96.6236 271.172 96.8813C270.901 97.6129 270.658 98.3574 270.433 99.1033C270.336 99.4215 270.093 100.124 270.382 100.26C269.921 101.11 269.513 101.985 269.173 102.889C268.185 105.518 267.104 108.402 266.756 111.189C266.628 112.221 266.623 113.258 266.742 114.292C266.801 114.803 266.777 115.831 267.123 116.219C267.859 117.044 268.236 115.89 268.153 115.34C267.52 111.15 268.742 107.216 270.191 103.278C271.127 100.731 272.666 98.4011 274.39 96.2911C275.785 94.5832 277.282 93.2382 279.195 92.1058C281.533 90.7211 284.034 89.6017 286.511 88.4788C288.141 87.74 289.772 87.021 291.447 86.3844C291.819 86.2427 292.405 85.8796 292.818 85.8782C293.691 85.8751 294.929 86.5195 295.772 86.7592C298.547 87.548 301.357 88.5579 304.224 88.9607C306.063 89.2194 307.786 88.9283 309.506 88.3155C309.682 88.2531 309.977 88.0922 310.338 87.8624C311.615 87.3712 312.823 86.7529 313.875 85.861C314.481 85.3471 315.031 84.683 315.532 84.0751C315.682 83.8934 315.748 83.685 315.751 83.4871C315.864 83.4277 315.94 83.3583 315.957 83.2773C316.082 82.6791 314.941 82.668 314.21 82.7036Z" fill="#89C5CC"/>
<path fill-rule="evenodd" clip-rule="evenodd" d="M174.912 67.3847C170.816 63.1662 166.705 59.0002 162.129 55.2856C159.432 53.0967 156.589 51.1063 153.805 49.0308C154.127 49.3122 154.441 49.6017 154.749 49.8982C153.88 49.3084 152.742 48.975 151.821 48.429C150.794 47.82 149.811 47.1233 148.848 46.4211C146.967 45.0507 145.115 43.6543 143.181 42.3553C141.028 40.9083 138.795 39.5712 136.605 38.1786C134.746 36.9968 132.864 35.7032 130.875 34.7372C129.791 34.2106 128.705 33.5863 127.616 33.0371C127.252 32.8534 123.556 30.5194 123.565 30.5124C123.769 30.3584 125.629 31.2324 125.917 31.35C126.757 31.6932 127.561 32.1037 128.369 32.5129C127.925 31.6383 127.574 30.7194 127.383 29.7521C127.324 29.4536 126.851 27.2801 127.093 27.0978C127.214 27.0067 128.393 30.8953 128.454 31.2692C128.503 31.5729 128.495 32.0102 128.595 32.2978C128.755 32.7622 128.747 32.6219 129.101 32.8836C129.749 33.3631 130.609 33.6627 131.31 34.0636C131.689 34.2748 132.86 35.112 133.565 35.3507C135.699 36.3872 137.862 37.9818 139.89 39.3057C139.358 38.3055 138.953 37.2598 138.657 36.1639C138.587 35.9037 137.829 33.5696 138.013 33.431C138.22 33.2751 139.664 36.8399 139.749 37.1774C139.908 37.8042 139.941 38.502 140.14 39.1119C140.359 39.7813 141.04 40.0186 141.654 40.4089C143.914 41.8445 146.096 43.37 148.241 44.9655C150.583 40.8018 147.883 35.7737 145.608 32.2802C143.968 29.7624 141.761 27.6038 139.429 25.7193C136.319 23.2041 132.759 21.1949 129.204 19.357C125.062 17.2155 120.585 15.8886 115.931 15.2756C113.496 14.955 111.006 14.964 108.547 15.0668C107.346 15.1169 106.193 15.276 105.042 15.6678C104.523 15.8446 104.022 16.0673 103.533 16.3168C103.162 16.5063 102.264 16.7064 102.05 16.9888C100.293 19.2758 99.3939 21.5548 99.5312 24.4288C99.661 27.1493 100.52 29.8712 101.686 32.2979C102.985 35 104.655 37.4525 106.839 39.5109C108.506 41.0814 110.369 42.4481 112.22 43.797C118.803 48.5945 127.149 52.7671 135.675 51.6951C138.435 51.3483 141.06 50.3831 143.513 49.0715C144.091 48.7625 144.665 48.4499 145.211 48.0849C145.579 47.839 146.562 46.7305 146.932 46.6902C147.439 46.635 148.532 47.6667 149.008 47.9807C152.624 50.3679 156.146 52.8843 159.593 55.5025C163.262 58.2883 166.75 61.2634 170.135 64.3785C171.575 65.7035 173.006 67.0314 174.404 68.4009C174.73 68.7194 175.526 69.8928 176.116 69.9459C176.489 69.9795 176.741 69.6608 176.687 69.3155C176.595 68.7151 175.331 67.8166 174.912 67.3847Z" fill="#5EA281"/>
<path fill-rule="evenodd" clip-rule="evenodd" d="M309.909 99.6018C308.323 99.2552 306.571 99.2817 304.954 99.3103C296.286 99.4282 287.774 103.532 282.234 110.089C277.518 115.672 276.222 122.612 275.29 129.628C275.198 130.325 275.158 131.017 275.106 131.715C275.095 131.865 275.078 131.999 275.06 132.125C274.694 132.452 274.501 132.834 274.718 133.254C273.911 135.02 273.228 136.831 272.642 138.699C270.918 144.198 269.164 149.801 270.244 155.583C270.497 152.401 271.028 149.147 271.663 146.018C271.7 145.838 271.739 145.66 271.78 145.482C271.784 145.463 271.788 145.445 271.792 145.426C272.017 144.468 272.309 143.538 272.665 142.623C272.669 142.613 272.672 142.603 272.676 142.593C272.723 142.473 272.773 142.353 272.822 142.233C272.924 141.985 273.028 141.738 273.139 141.492C273.177 141.408 273.213 141.323 273.247 141.238C273.765 139.97 273.983 138.541 274.447 137.229C274.558 136.93 274.673 136.633 274.795 136.338C274.802 136.32 274.809 136.303 274.817 136.286C275.145 135.49 275.508 134.704 275.891 133.927C276.1 133.77 276.211 133.381 276.391 133.028C276.428 132.959 276.718 132.495 276.805 132.227C277.031 131.79 277.256 131.353 277.483 130.917C277.476 130.92 277.47 130.922 277.463 130.925C277.69 130.506 277.919 130.089 278.145 129.674C278.195 129.583 278.245 129.491 278.295 129.4C278.377 129.254 278.458 129.109 278.539 128.963C279.298 127.605 280.104 126.273 280.94 124.958C281.238 124.489 281.951 123.816 282.087 123.289C282.093 123.269 282.094 123.251 282.097 123.232C283.911 120.684 285.999 118.334 288.504 116.472C288.201 116.799 287.558 117.909 287.388 118.129C286.867 118.803 286.302 119.429 285.734 120.064C284.718 121.2 283.726 122.372 282.845 123.612C281.233 125.879 279.842 128.266 278.527 130.7C278.515 130.714 278.501 130.727 278.489 130.742C277.828 131.557 277.413 132.788 276.937 133.719C278.819 132.848 280.901 132.28 282.832 131.505C284.759 130.734 286.633 129.874 288.442 128.865C290.847 127.524 293.342 126.009 295.614 124.295C298.218 122.68 300.406 120.457 302.337 118.124C304.622 115.364 306.717 112.58 308.012 109.228C308.648 107.581 309.148 105.864 309.445 104.127C309.458 104.051 309.475 103.969 309.493 103.883C309.796 103.283 310.068 102.67 310.296 102.042C310.657 101.047 311.511 99.9517 309.909 99.6018Z" fill="#59CCB0"/>
<path fill-rule="evenodd" clip-rule="evenodd" d="M178.392 45.9469C178.393 45.2142 178.474 44.4787 178.72 43.7796C178.783 43.6029 179.292 42.3347 179.438 42.3747C179.779 42.4679 178.386 45.7193 178.392 45.9469ZM171.653 47.2746C171.672 47.2885 171.85 48.1125 171.916 48.3557C172.055 48.8728 172.215 49.3838 172.386 49.8862C172.039 49.0405 171.741 48.2345 171.653 47.2746ZM197.658 31.3169C198.051 31.1348 198.06 30.4142 197.58 30.6821C197.192 30.8996 197.191 30.8672 196.812 30.7429C196.504 30.642 196.198 30.4543 195.895 30.3299C195.252 30.0662 194.6 29.8507 193.918 29.7144C192.456 29.422 190.966 29.382 189.492 29.5503C186.919 29.8441 184.25 30.4064 181.947 31.5762C178.286 33.4363 174.934 36.4362 172.551 39.6896C171.074 41.7044 169.993 43.8362 170.136 46.3906C170.207 47.6672 170.522 48.9494 171.18 50.0738C171.352 50.3676 171.613 50.6302 171.766 50.9313C172.003 51.3943 171.958 51.2544 171.594 51.7231C171.196 52.2349 170.8 52.748 170.406 53.2623C169.373 54.6091 168.346 55.9757 167.467 57.4258C167.177 57.903 166.92 58.3975 166.692 58.9062C166.52 59.2908 165.739 60.7198 165.943 61.2168C166.281 62.0441 166.792 61.0558 166.907 60.7013C167.008 60.3908 167.122 60.083 167.246 59.7811C167.561 59.0208 167.951 58.2969 168.391 57.6011C168.867 56.8492 169.395 56.1281 169.92 55.4092C170.411 54.7389 170.913 54.0771 171.42 53.4193C171.702 53.0539 171.985 52.6898 172.269 52.3257C172.366 52.2013 172.476 51.9163 172.598 52.079C173.176 51.2941 173.955 50.6115 174.637 49.9127C175.472 49.0569 176.319 48.2064 177.224 47.421C177.878 46.8547 178.552 46.3096 179.263 45.8118C179.678 45.5209 180.108 45.2585 180.556 45.0165C180.802 44.8836 181.686 44.267 181.954 44.3404C181.839 44.3088 181.04 45.1804 180.926 45.2779C180.469 45.6683 179.992 46.0284 179.507 46.3847C178.608 47.046 177.749 47.7512 176.937 48.5128C177.073 48.6534 177.867 48.3936 178.092 48.3628C178.594 48.294 179.102 48.2565 179.611 48.2596C180.507 48.265 181.597 48.2901 182.421 48.5156C182.178 48.4491 181.506 48.6915 181.224 48.7301C180.771 48.7918 180.312 48.8355 179.855 48.8517C179.433 48.8666 179.011 48.8508 178.589 48.827C178.167 48.8029 177.445 48.609 177.024 48.7223C176.999 48.7291 176.965 48.9411 176.864 48.9727C176.762 49.0046 176.52 48.9187 176.495 48.9284C176.137 49.0704 175.752 49.6603 175.486 49.9296C174.797 50.6276 174.117 51.3353 173.434 52.0394C173.222 52.2575 172.986 52.3817 173.053 52.6239C173.126 52.8822 173.716 53.1915 173.939 53.3394C174.767 53.8889 175.663 54.2407 176.656 54.3426C178.515 54.5337 180.269 54.186 181.959 53.4768C188.432 50.7604 194.24 46.7036 197.398 40.3996C198.706 37.7897 200.479 33.6464 197.658 31.3169Z" fill="#89CCA8"/>
<path opacity="0.6" fill-rule="evenodd" clip-rule="evenodd" d="M33.2562 318.006C28.7672 348.394 137.633 368.215 231.335 354.382C325.038 340.55 368.025 286.532 323.311 257.749C278.598 228.966 37.7452 287.618 33.2562 318.006Z" fill="#262626"/>
<path d="M124.773 170.934C128.627 170.934 131.751 167.81 131.751 163.956C131.751 160.103 128.627 156.979 124.773 156.979C120.919 156.979 117.795 160.103 117.795 163.956C117.795 167.81 120.919 170.934 124.773 170.934Z" fill="white"/>
<path d="M130.82 46.7295H122.912C122.398 46.7295 121.981 47.146 121.981 47.6599C121.981 48.1737 122.398 48.5902 122.912 48.5902H130.82C131.334 48.5902 131.75 48.1737 131.75 47.6599C131.75 47.146 131.334 46.7295 130.82 46.7295Z" fill="white"/>
<path d="M148.963 68.1279C150.762 68.1279 152.22 66.67 152.22 64.8716C152.22 63.0731 150.762 61.6152 148.963 61.6152C147.165 61.6152 145.707 63.0731 145.707 64.8716C145.707 66.67 147.165 68.1279 148.963 68.1279Z" fill="#DDE3E9"/>
<path d="M148.963 66.2677C149.734 66.2677 150.359 65.6429 150.359 64.8721C150.359 64.1014 149.734 63.4766 148.963 63.4766C148.192 63.4766 147.567 64.1014 147.567 64.8721C147.567 65.6429 148.192 66.2677 148.963 66.2677Z" fill="#F2F2F2"/>
<path d="M148.963 117.437C150.762 117.437 152.22 115.98 152.22 114.181C152.22 112.383 150.762 110.925 148.963 110.925C147.165 110.925 145.707 112.383 145.707 114.181C145.707 115.98 147.165 117.437 148.963 117.437Z" fill="#DDE3E9"/>
<path d="M148.963 115.577C149.734 115.577 150.359 114.952 150.359 114.182C150.359 113.411 149.734 112.786 148.963 112.786C148.192 112.786 147.567 113.411 147.567 114.182C147.567 114.952 148.192 115.577 148.963 115.577Z" fill="#F2F2F2"/>
<path d="M134.076 138.416H114.073C113.303 138.416 112.678 139.041 112.678 139.812V139.951C112.678 140.722 113.303 141.347 114.073 141.347H134.076C134.847 141.347 135.472 140.722 135.472 139.951V139.812C135.472 139.041 134.847 138.416 134.076 138.416Z" fill="#DDE3E9"/>
<path d="M288.662 61.9697H106.083C103.554 61.9697 101.504 64.0197 101.504 66.5485V255.424C101.504 257.953 103.554 260.003 106.083 260.003H288.662C291.191 260.003 293.241 257.953 293.241 255.424V66.5485C293.241 64.0197 291.191 61.9697 288.662 61.9697Z" fill="#282744"/>
<path d="M279.504 86.5801H248.597C246.069 86.5801 244.019 88.6301 244.019 91.1589V128.362C244.019 130.89 246.069 132.94 248.597 132.94H279.504C282.033 132.94 284.083 130.89 284.083 128.362V91.1589C284.083 88.6301 282.033 86.5801 279.504 86.5801Z" fill="#484760"/>
<path d="M264.051 113.482C269.109 113.482 273.209 109.382 273.209 104.325C273.209 99.267 269.109 95.167 264.051 95.167C258.994 95.167 254.894 99.267 254.894 104.325C254.894 109.382 258.994 113.482 264.051 113.482Z" fill="#DDE3E9" fill-opacity="0.15"/>
<path d="M276.643 115.772H251.459C250.511 115.772 249.742 116.541 249.742 117.49C249.742 118.438 250.511 119.207 251.459 119.207H276.643C277.591 119.207 278.36 118.438 278.36 117.49C278.36 116.541 277.591 115.772 276.643 115.772Z" fill="#DDE3E9" fill-opacity="0.15"/>
<path d="M272.064 121.494H256.038C255.09 121.494 254.321 122.263 254.321 123.211C254.321 124.159 255.09 124.928 256.038 124.928H272.064C273.012 124.928 273.781 124.159 273.781 123.211C273.781 122.263 273.012 121.494 272.064 121.494Z" fill="#DDE3E9" fill-opacity="0.15"/>
<path fill-rule="evenodd" clip-rule="evenodd" d="M106.083 61.9697H288.662C291.191 61.9697 293.241 64.0197 293.241 66.5485V77.4232H101.504V66.5485C101.504 64.0197 103.554 61.9697 106.083 61.9697Z" fill="#8F5DFF" fill-opacity="0.25"/>
<path d="M108.945 72.2731C110.209 72.2731 111.234 71.2481 111.234 69.9837C111.234 68.7193 110.209 67.6943 108.945 67.6943C107.68 67.6943 106.655 68.7193 106.655 69.9837C106.655 71.2481 107.68 72.2731 108.945 72.2731Z" fill="#F2F2F2" fill-opacity="0.25"/>
<path d="M115.813 72.2731C117.077 72.2731 118.102 71.2481 118.102 69.9837C118.102 68.7193 117.077 67.6943 115.813 67.6943C114.548 67.6943 113.523 68.7193 113.523 69.9837C113.523 71.2481 114.548 72.2731 115.813 72.2731Z" fill="#F2F2F2" fill-opacity="0.25"/>
<path d="M122.681 72.2731C123.945 72.2731 124.97 71.2481 124.97 69.9837C124.97 68.7193 123.945 67.6943 122.681 67.6943C121.417 67.6943 120.392 68.7193 120.392 69.9837C120.392 71.2481 121.417 72.2731 122.681 72.2731Z" fill="#F2F2F2" fill-opacity="0.25"/>
<path d="M279.504 137.519H248.597C246.069 137.519 244.019 139.569 244.019 142.097V243.976C244.019 246.504 246.069 248.554 248.597 248.554H279.504C282.033 248.554 284.083 246.504 284.083 243.976V142.097C284.083 139.569 282.033 137.519 279.504 137.519Z" fill="white" fill-opacity="0.1"/>
<path d="M271.492 147.823H256.611C255.346 147.823 254.321 148.848 254.321 150.113V160.415C254.321 161.679 255.346 162.704 256.611 162.704H271.492C272.756 162.704 273.781 161.679 273.781 160.415V150.113C273.781 148.848 272.756 147.823 271.492 147.823Z" fill="#DDE3E9"/>
<path d="M271.492 167.283H256.611C255.346 167.283 254.321 168.308 254.321 169.573V179.303C254.321 180.567 255.346 181.592 256.611 181.592H271.492C272.756 181.592 273.781 180.567 273.781 179.303V169.573C273.781 168.308 272.756 167.283 271.492 167.283Z" fill="#AFB9C5"/>
<path d="M271.492 186.169H256.611C255.346 186.169 254.321 187.194 254.321 188.458V198.188C254.321 199.453 255.346 200.478 256.611 200.478H271.492C272.756 200.478 273.781 199.453 273.781 198.188V188.458C273.781 187.194 272.756 186.169 271.492 186.169Z" fill="#DDE3E9"/>
<path d="M271.492 223.944H256.611C255.346 223.944 254.321 224.969 254.321 226.234V235.964C254.321 237.228 255.346 238.253 256.611 238.253H271.492C272.756 238.253 273.781 237.228 273.781 235.964V226.234C273.781 224.969 272.756 223.944 271.492 223.944Z" fill="#DDE3E9"/>
<path d="M271.492 205.057H256.611C255.346 205.057 254.321 206.082 254.321 207.346V217.076C254.321 218.34 255.346 219.365 256.611 219.365H271.492C272.756 219.365 273.781 218.34 273.781 217.076V207.346C273.781 206.082 272.756 205.057 271.492 205.057Z" fill="#C5CFD6"/>
<path d="M236.404 88H95.5956C94.1621 88 93 89.7147 93 91.8298V129.17C93 131.285 94.1621 133 95.5956 133H236.404C237.838 133 239 131.285 239 129.17V91.8298C239 89.7147 237.838 88 236.404 88Z" fill="white" fill-opacity="0.15"/>
<path d="M208.97 92H100.03C98.9088 92 98 92.7621 98 93.7021V94.2979C98 95.2379 98.9088 96 100.03 96H208.97C210.091 96 211 95.2379 211 94.2979V93.7021C211 92.7621 210.091 92 208.97 92Z" fill="#8F5DFF" fill-opacity="0.5"/>
<path d="M208.97 92H100.03C98.9088 92 98 92.7621 98 93.7021V94.2979C98 95.2379 98.9088 96 100.03 96H208.97C210.091 96 211 95.2379 211 94.2979V93.7021C211 92.7621 210.091 92 208.97 92Z" fill="#F4F4F4" fill-opacity="0.5"/>
<path d="M171.966 99H100.034C98.9106 99 98 99.7621 98 100.702V101.298C98 102.238 98.9106 103 100.034 103H171.966C173.089 103 174 102.238 174 101.298V100.702C174 99.7621 173.089 99 171.966 99Z" fill="#8F5DFF" fill-opacity="0.5"/>
<path d="M171.966 99H100.034C98.9106 99 98 99.7621 98 100.702V101.298C98 102.238 98.9106 103 100.034 103H171.966C173.089 103 174 102.238 174 101.298V100.702C174 99.7621 173.089 99 171.966 99Z" fill="#F4F4F4" fill-opacity="0.5"/>
<path d="M180.725 107H100.275C99.0185 107 98 107.762 98 108.702V109.298C98 110.238 99.0185 111 100.275 111H180.725C181.982 111 183 110.238 183 109.298V108.702C183 107.762 181.982 107 180.725 107Z" fill="#8F5DFF" fill-opacity="0.5"/>
<path d="M180.725 107H100.275C99.0185 107 98 107.762 98 108.702V109.298C98 110.238 99.0185 111 100.275 111H180.725C181.982 111 183 110.238 183 109.298V108.702C183 107.762 181.982 107 180.725 107Z" fill="#F4F4F4" fill-opacity="0.5"/>
<path d="M225.677 131.51C226.625 131.51 227.394 130.742 227.394 129.793C227.394 128.845 226.625 128.076 225.677 128.076C224.729 128.076 223.96 128.845 223.96 129.793C223.96 130.742 224.729 131.51 225.677 131.51Z" fill="#F2F2F2"/>
<path d="M237.149 145.532H112.95C111.685 145.532 110.66 146.557 110.66 147.822V165.564C110.66 166.829 111.685 167.854 112.95 167.854H237.149C238.414 167.854 239.439 166.829 239.439 165.564V147.822C239.439 146.557 238.414 145.532 237.149 145.532Z" fill="white" fill-opacity="0.05"/>
<path d="M209.719 152.229H117.485C116.56 152.229 115.811 152.978 115.811 153.903C115.811 154.827 116.56 155.577 117.485 155.577H209.719C210.643 155.577 211.393 154.827 211.393 153.903C211.393 152.978 210.643 152.229 209.719 152.229Z" fill="#DDE3E9" fill-opacity="0.1"/>
<path d="M178.294 157.809H117.485C116.56 157.809 115.811 158.558 115.811 159.483C115.811 160.407 116.56 161.157 117.485 161.157H178.294C179.219 161.157 179.969 160.407 179.969 159.483C179.969 158.558 179.219 157.809 178.294 157.809Z" fill="#DDE3E9" fill-opacity="0.1"/>
<path d="M225.677 160.698C227.89 160.698 229.684 158.905 229.684 156.692C229.684 154.479 227.89 152.686 225.677 152.686C223.465 152.686 221.671 154.479 221.671 156.692C221.671 158.905 223.465 160.698 225.677 160.698Z" fill="#DDE3E9"/>
<path d="M225.677 158.412C226.625 158.412 227.394 157.643 227.394 156.695C227.394 155.746 226.625 154.978 225.677 154.978C224.729 154.978 223.96 155.746 223.96 156.695C223.96 157.643 224.729 158.412 225.677 158.412Z" fill="#AFB9C5"/>
<path d="M237.149 226.233H112.95C111.685 226.233 110.66 227.258 110.66 228.523V246.266C110.66 247.53 111.685 248.555 112.95 248.555H237.149C238.414 248.555 239.439 247.53 239.439 246.266V228.523C239.439 227.258 238.414 226.233 237.149 226.233Z" fill="white" fill-opacity="0.05"/>
<path d="M209.719 232.931H117.485C116.56 232.931 115.811 233.68 115.811 234.605C115.811 235.529 116.56 236.279 117.485 236.279H209.719C210.643 236.279 211.393 235.529 211.393 234.605C211.393 233.68 210.643 232.931 209.719 232.931Z" fill="#DDE3E9" fill-opacity="0.1"/>
<path d="M178.294 238.511H117.485C116.56 238.511 115.811 239.26 115.811 240.185C115.811 241.109 116.56 241.859 117.485 241.859H178.294C179.219 241.859 179.969 241.109 179.969 240.185C179.969 239.26 179.219 238.511 178.294 238.511Z" fill="#DDE3E9" fill-opacity="0.1"/>
<path d="M225.677 241.403C227.89 241.403 229.684 239.609 229.684 237.396C229.684 235.183 227.89 233.39 225.677 233.39C223.465 233.39 221.671 235.183 221.671 237.396C221.671 239.609 223.465 241.403 225.677 241.403Z" fill="#DDE3E9"/>
<path d="M225.677 239.113C226.625 239.113 227.394 238.344 227.394 237.396C227.394 236.447 226.625 235.679 225.677 235.679C224.729 235.679 223.96 236.447 223.96 237.396C223.96 238.344 224.729 239.113 225.677 239.113Z" fill="#F2F2F2"/>
<path d="M237.149 199.333H112.95C111.685 199.333 110.66 200.358 110.66 201.622V219.365C110.66 220.63 111.685 221.655 112.95 221.655H237.149C238.414 221.655 239.439 220.63 239.439 219.365V201.622C239.439 200.358 238.414 199.333 237.149 199.333Z" fill="white" fill-opacity="0.05"/>
<path d="M209.719 206.031H117.485C116.56 206.031 115.811 206.781 115.811 207.705C115.811 208.63 116.56 209.379 117.485 209.379H209.719C210.643 209.379 211.393 208.63 211.393 207.705C211.393 206.781 210.643 206.031 209.719 206.031Z" fill="#DDE3E9" fill-opacity="0.1"/>
<path d="M178.294 211.611H117.485C116.56 211.611 115.811 212.361 115.811 213.285C115.811 214.21 116.56 214.96 117.485 214.96H178.294C179.219 214.96 179.969 214.21 179.969 213.285C179.969 212.361 179.219 211.611 178.294 211.611Z" fill="#DDE3E9" fill-opacity="0.1"/>
<path d="M225.677 214.501C227.89 214.501 229.684 212.707 229.684 210.495C229.684 208.282 227.89 206.488 225.677 206.488C223.465 206.488 221.671 208.282 221.671 210.495C221.671 212.707 223.465 214.501 225.677 214.501Z" fill="#DDE3E9"/>
<path d="M225.677 212.209C226.625 212.209 227.394 211.441 227.394 210.492C227.394 209.544 226.625 208.775 225.677 208.775C224.729 208.775 223.96 209.544 223.96 210.492C223.96 211.441 224.729 212.209 225.677 212.209Z" fill="#F2F2F2"/>
<path d="M237.149 172.434H112.95C111.685 172.434 110.66 173.459 110.66 174.723V192.466C110.66 193.73 111.685 194.755 112.95 194.755H237.149C238.414 194.755 239.439 193.73 239.439 192.466V174.723C239.439 173.459 238.414 172.434 237.149 172.434Z" fill="white" fill-opacity="0.05"/>
<path d="M209.719 179.128H117.485C116.56 179.128 115.811 179.877 115.811 180.802C115.811 181.727 116.56 182.476 117.485 182.476H209.719C210.643 182.476 211.393 181.727 211.393 180.802C211.393 179.877 210.643 179.128 209.719 179.128Z" fill="#DDE3E9" fill-opacity="0.1"/>
<path d="M178.294 184.708H117.485C116.56 184.708 115.811 185.458 115.811 186.382C115.811 187.307 116.56 188.056 117.485 188.056H178.294C179.219 188.056 179.969 187.307 179.969 186.382C179.969 185.458 179.219 184.708 178.294 184.708Z" fill="#DDE3E9" fill-opacity="0.1"/>
<path d="M225.677 187.602C227.89 187.602 229.684 185.808 229.684 183.595C229.684 181.383 227.89 179.589 225.677 179.589C223.465 179.589 221.671 181.383 221.671 183.595C221.671 185.808 223.465 187.602 225.677 187.602Z" fill="#DDE3E9"/>
<path d="M225.677 185.31C226.625 185.31 227.394 184.541 227.394 183.593C227.394 182.645 226.625 181.876 225.677 181.876C224.729 181.876 223.96 182.645 223.96 183.593C223.96 184.541 224.729 185.31 225.677 185.31Z" fill="#F2F2F2"/>
<path fill-rule="evenodd" clip-rule="evenodd" d="M283.569 58.2953C282.675 59.2443 281.408 59.8402 280 59.8402C277.294 59.8402 275.1 57.6533 275.1 54.9557C275.1 52.258 277.294 50.0712 280 50.0712V41C272.301 41 266 47.2815 266 54.9557C266 62.6299 272.301 68.9114 280 68.9114C284.044 68.9114 287.699 67.206 290.19 64.493L283.569 58.2953Z" fill="#FF8CED" fill-opacity="0.33"/>
<path fill-rule="evenodd" clip-rule="evenodd" d="M279.956 41V50.0712C282.654 50.0712 284.841 52.258 284.841 54.9557H293.912C293.912 47.2815 287.63 41 279.956 41Z" fill="#F197DD" fill-opacity="0.5"/>
<path fill-rule="evenodd" clip-rule="evenodd" d="M309.964 159.306C309.964 160.891 309.218 162.299 308.059 163.209L313.763 170.47C317.083 167.871 319.223 163.841 319.223 159.306H309.964Z" fill="#C5CFD6"/>
<path fill-rule="evenodd" clip-rule="evenodd" d="M272.7 241.171C272.701 241.176 272.703 241.18 272.706 241.186C272.703 241.181 272.7 241.163 272.7 241.171Z" fill="#C5CFD6"/>
<path fill-rule="evenodd" clip-rule="evenodd" d="M272.704 241.179C272.704 241.179 272.705 241.181 272.705 241.183C272.705 241.179 272.697 241.165 272.704 241.179Z" fill="#C5CFD6"/>
<path fill-rule="evenodd" clip-rule="evenodd" d="M272.672 241.1C272.678 241.118 272.687 241.136 272.694 241.155C272.691 241.145 272.687 241.138 272.683 241.128C272.78 241.37 272.718 241.213 272.672 241.1Z" fill="#C5CFD6"/>
<path fill-rule="evenodd" clip-rule="evenodd" d="M272.693 241.156C272.697 241.165 272.701 241.174 272.704 241.182C272.731 241.233 272.693 241.156 272.693 241.156Z" fill="#C5CFD6"/>
<path fill-rule="evenodd" clip-rule="evenodd" d="M272.707 241.186C272.713 241.197 272.681 241.143 272.707 241.186V241.186Z" fill="#C5CFD6"/>
<path fill-rule="evenodd" clip-rule="evenodd" d="M272.704 241.178L272.702 241.177C272.703 241.178 272.703 241.178 272.704 241.178Z" fill="#C5CFD6"/>
<path fill-rule="evenodd" clip-rule="evenodd" d="M261.513 226.269L278.397 249.088H244.629L261.513 226.269Z" fill="#C5CFD6"/>
<path d="M254.328 226.293C250.86 226.293 248.048 223.481 248.048 220.012C248.048 216.544 250.86 213.732 254.328 213.732C257.797 213.732 260.608 216.544 260.608 220.012C260.608 223.481 257.797 226.293 254.328 226.293Z" fill="white"/>
<g filter="url(#filter0_ddiii_2163_2808)">
<rect x="193" y="115" width="41.9907" height="10.4432" rx="5.22162" fill="#8F5DFF"/>
<rect x="193" y="115" width="41.9907" height="10.4432" rx="5.22162" fill="url(#paint0_linear_2163_2808)"/>
<rect x="193.097" y="115.097" width="41.7963" height="10.2488" rx="5.12442" stroke="white" stroke-opacity="0.2" stroke-width="0.194401"/>
<path d="M200.441 121.722L200.224 121.105H199.375L199.158 121.722H198.773L199.6 119.492H200.004L200.828 121.722H200.441ZM200.13 120.792L199.919 120.185C199.91 120.158 199.899 120.121 199.884 120.074C199.868 120.025 199.853 119.976 199.838 119.927C199.823 119.876 199.81 119.833 199.8 119.799C199.79 119.84 199.777 119.887 199.762 119.939C199.748 119.989 199.734 120.037 199.72 120.081C199.706 120.126 199.696 120.16 199.689 120.185L199.477 120.792H200.13ZM202.215 121.242C202.215 121.352 202.188 121.445 202.134 121.521C202.081 121.597 202.002 121.655 201.899 121.694C201.797 121.733 201.671 121.752 201.522 121.752C201.405 121.752 201.304 121.743 201.219 121.726C201.135 121.71 201.055 121.685 200.98 121.65V121.342C201.06 121.379 201.15 121.412 201.249 121.439C201.349 121.467 201.444 121.48 201.533 121.48C201.65 121.48 201.735 121.462 201.787 121.426C201.838 121.388 201.864 121.338 201.864 121.277C201.864 121.24 201.853 121.208 201.832 121.179C201.812 121.15 201.773 121.12 201.717 121.09C201.661 121.058 201.579 121.021 201.471 120.977C201.364 120.935 201.275 120.892 201.202 120.85C201.129 120.807 201.074 120.756 201.036 120.697C200.999 120.636 200.98 120.558 200.98 120.464C200.98 120.315 201.039 120.202 201.156 120.125C201.275 120.047 201.431 120.009 201.626 120.009C201.729 120.009 201.826 120.019 201.917 120.04C202.009 120.061 202.1 120.091 202.188 120.13L202.075 120.399C201.999 120.365 201.923 120.338 201.846 120.317C201.77 120.295 201.692 120.283 201.614 120.283C201.521 120.283 201.451 120.298 201.402 120.326C201.355 120.354 201.331 120.395 201.331 120.447C201.331 120.487 201.343 120.52 201.366 120.548C201.389 120.575 201.429 120.602 201.486 120.63C201.544 120.657 201.624 120.691 201.726 120.731C201.826 120.77 201.913 120.81 201.986 120.853C202.06 120.894 202.116 120.946 202.156 121.006C202.195 121.067 202.215 121.146 202.215 121.242ZM202.958 119.358V120.501C202.958 120.552 202.956 120.609 202.952 120.671C202.947 120.731 202.943 120.789 202.939 120.842H202.947C202.973 120.807 203.005 120.765 203.041 120.718C203.079 120.67 203.114 120.629 203.147 120.593L203.661 120.04H204.071L203.398 120.763L204.115 121.722H203.696L203.158 120.984L202.958 121.155V121.722H202.601V119.358H202.958ZM206.51 121.117C206.51 121.249 206.478 121.362 206.413 121.457C206.349 121.553 206.257 121.625 206.136 121.676C206.017 121.727 205.874 121.752 205.708 121.752C205.627 121.752 205.55 121.747 205.476 121.738C205.402 121.729 205.332 121.716 205.266 121.699C205.201 121.681 205.142 121.659 205.088 121.634V121.29C205.179 121.33 205.279 121.366 205.391 121.398C205.502 121.43 205.615 121.445 205.731 121.445C205.825 121.445 205.903 121.433 205.965 121.409C206.028 121.384 206.074 121.348 206.104 121.303C206.135 121.256 206.15 121.202 206.15 121.14C206.15 121.074 206.132 121.018 206.097 120.973C206.061 120.927 206.008 120.886 205.936 120.848C205.865 120.81 205.776 120.769 205.669 120.725C205.596 120.696 205.526 120.663 205.459 120.625C205.393 120.588 205.334 120.544 205.283 120.493C205.231 120.442 205.19 120.383 205.16 120.314C205.13 120.244 205.116 120.162 205.116 120.068C205.116 119.942 205.146 119.835 205.205 119.746C205.266 119.657 205.351 119.588 205.461 119.541C205.571 119.493 205.699 119.469 205.846 119.469C205.963 119.469 206.072 119.482 206.174 119.506C206.278 119.53 206.379 119.565 206.478 119.609L206.363 119.902C206.272 119.865 206.183 119.835 206.097 119.813C206.012 119.79 205.925 119.779 205.836 119.779C205.759 119.779 205.693 119.791 205.64 119.814C205.586 119.837 205.545 119.87 205.517 119.913C205.489 119.954 205.476 120.004 205.476 120.062C205.476 120.126 205.491 120.181 205.523 120.226C205.555 120.269 205.605 120.309 205.672 120.346C205.739 120.382 205.827 120.423 205.933 120.467C206.055 120.518 206.159 120.571 206.244 120.627C206.33 120.682 206.396 120.749 206.442 120.827C206.487 120.904 206.51 121.001 206.51 121.117ZM207.528 121.463C207.574 121.463 207.62 121.459 207.666 121.451C207.711 121.442 207.753 121.432 207.79 121.419V121.69C207.751 121.707 207.7 121.722 207.637 121.734C207.574 121.746 207.509 121.752 207.441 121.752C207.346 121.752 207.26 121.736 207.184 121.705C207.108 121.673 207.048 121.617 207.004 121.539C206.959 121.461 206.937 121.354 206.937 121.216V120.312H206.707V120.153L206.953 120.027L207.07 119.667H207.295V120.04H207.777V120.312H207.295V121.211C207.295 121.296 207.316 121.36 207.359 121.401C207.402 121.443 207.458 121.463 207.528 121.463ZM209.598 120.04V121.722H209.317L209.268 121.495H209.248C209.213 121.553 209.168 121.601 209.113 121.64C209.058 121.677 208.998 121.705 208.931 121.723C208.864 121.742 208.794 121.752 208.72 121.752C208.593 121.752 208.485 121.731 208.395 121.688C208.306 121.645 208.237 121.578 208.19 121.488C208.142 121.398 208.118 121.281 208.118 121.138V120.04H208.477V121.072C208.477 121.202 208.503 121.3 208.556 121.365C208.609 121.43 208.692 121.462 208.805 121.462C208.913 121.462 208.999 121.44 209.063 121.395C209.127 121.351 209.172 121.285 209.198 121.198C209.226 121.111 209.239 121.004 209.239 120.877V120.04H209.598ZM210.674 121.752C210.474 121.752 210.313 121.679 210.191 121.533C210.071 121.387 210.011 121.17 210.011 120.885C210.011 120.596 210.072 120.378 210.195 120.23C210.318 120.082 210.481 120.009 210.682 120.009C210.767 120.009 210.842 120.02 210.905 120.043C210.969 120.066 211.024 120.096 211.069 120.135C211.116 120.173 211.155 120.216 211.188 120.264H211.204C211.199 120.232 211.193 120.187 211.186 120.128C211.18 120.069 211.177 120.014 211.177 119.963V119.358H211.536V121.722H211.256L211.192 121.492H211.177C211.147 121.541 211.108 121.585 211.062 121.624C211.016 121.663 210.961 121.694 210.898 121.717C210.835 121.74 210.761 121.752 210.674 121.752ZM210.775 121.462C210.928 121.462 211.035 121.418 211.098 121.33C211.161 121.242 211.193 121.11 211.195 120.933V120.886C211.195 120.698 211.165 120.554 211.104 120.454C211.044 120.352 210.933 120.302 210.772 120.302C210.643 120.302 210.545 120.354 210.477 120.458C210.41 120.561 210.377 120.706 210.377 120.891C210.377 121.076 210.41 121.218 210.477 121.316C210.545 121.413 210.644 121.462 210.775 121.462ZM211.794 120.04H212.183L212.527 121C212.543 121.044 212.556 121.087 212.568 121.129C212.582 121.171 212.593 121.212 212.602 121.252C212.612 121.293 212.62 121.333 212.626 121.374H212.635C212.645 121.321 212.659 121.263 212.678 121.198C212.697 121.132 212.718 121.066 212.741 121L213.073 120.04H213.457L212.735 121.953C212.694 122.062 212.643 122.155 212.582 122.232C212.522 122.31 212.451 122.369 212.369 122.408C212.287 122.449 212.194 122.469 212.088 122.469C212.038 122.469 211.994 122.466 211.956 122.46C211.919 122.455 211.887 122.449 211.861 122.443V122.158C211.882 122.163 211.909 122.167 211.941 122.171C211.973 122.175 212.007 122.177 212.041 122.177C212.105 122.177 212.16 122.165 212.207 122.139C212.253 122.114 212.293 122.078 212.325 122.032C212.358 121.986 212.385 121.934 212.406 121.875L212.465 121.717L211.794 120.04ZM214.069 119.358V119.928C214.069 119.994 214.067 120.059 214.063 120.122C214.06 120.185 214.057 120.234 214.054 120.27H214.069C214.114 120.197 214.178 120.136 214.259 120.086C214.341 120.035 214.446 120.01 214.573 120.01C214.773 120.01 214.933 120.083 215.055 120.23C215.176 120.376 215.237 120.592 215.237 120.879C215.237 121.069 215.209 121.229 215.153 121.359C215.098 121.488 215.019 121.587 214.918 121.653C214.818 121.719 214.7 121.752 214.564 121.752C214.436 121.752 214.333 121.729 214.254 121.682C214.176 121.635 214.115 121.579 214.07 121.517H214.045L213.979 121.722H213.712V119.358H214.069ZM214.479 120.3C214.378 120.3 214.297 120.32 214.237 120.361C214.179 120.401 214.136 120.462 214.11 120.543C214.084 120.623 214.07 120.725 214.069 120.848V120.88C214.069 121.068 214.098 121.211 214.157 121.31C214.217 121.409 214.325 121.459 214.482 121.459C214.607 121.459 214.702 121.409 214.769 121.309C214.836 121.207 214.869 121.063 214.869 120.874C214.869 120.684 214.836 120.541 214.769 120.444C214.703 120.348 214.607 120.3 214.479 120.3ZM217.116 120.04V121.722H216.835L216.786 121.495H216.766C216.731 121.553 216.686 121.601 216.631 121.64C216.576 121.677 216.516 121.705 216.449 121.723C216.382 121.742 216.312 121.752 216.238 121.752C216.111 121.752 216.003 121.731 215.913 121.688C215.824 121.645 215.755 121.578 215.708 121.488C215.66 121.398 215.636 121.281 215.636 121.138V120.04H215.995V121.072C215.995 121.202 216.021 121.3 216.074 121.365C216.127 121.43 216.21 121.462 216.323 121.462C216.431 121.462 216.517 121.44 216.581 121.395C216.645 121.351 216.69 121.285 216.716 121.198C216.743 121.111 216.757 121.004 216.757 120.877V120.04H217.116ZM218.192 121.752C217.992 121.752 217.831 121.679 217.709 121.533C217.589 121.387 217.529 121.17 217.529 120.885C217.529 120.596 217.59 120.378 217.712 120.23C217.836 120.082 217.998 120.009 218.2 120.009C218.285 120.009 218.359 120.02 218.423 120.043C218.487 120.066 218.542 120.096 218.587 120.135C218.634 120.173 218.673 120.216 218.706 120.264H218.722C218.717 120.232 218.711 120.187 218.704 120.128C218.698 120.069 218.695 120.014 218.695 119.963V119.358H219.053V121.722H218.774L218.71 121.492H218.695C218.665 121.541 218.626 121.585 218.58 121.624C218.534 121.663 218.479 121.694 218.416 121.717C218.353 121.74 218.278 121.752 218.192 121.752ZM218.293 121.462C218.445 121.462 218.553 121.418 218.616 121.33C218.679 121.242 218.711 121.11 218.713 120.933V120.886C218.713 120.698 218.683 120.554 218.622 120.454C218.561 120.352 218.451 120.302 218.29 120.302C218.161 120.302 218.063 120.354 217.995 120.458C217.928 120.561 217.895 120.706 217.895 120.891C217.895 121.076 217.928 121.218 217.995 121.316C218.063 121.413 218.162 121.462 218.293 121.462ZM220.13 121.752C219.93 121.752 219.769 121.679 219.647 121.533C219.527 121.387 219.467 121.17 219.467 120.885C219.467 120.596 219.528 120.378 219.65 120.23C219.774 120.082 219.936 120.009 220.138 120.009C220.223 120.009 220.297 120.02 220.361 120.043C220.425 120.066 220.48 120.096 220.525 120.135C220.572 120.173 220.611 120.216 220.644 120.264H220.66C220.655 120.232 220.649 120.187 220.642 120.128C220.636 120.069 220.633 120.014 220.633 119.963V119.358H220.991V121.722H220.712L220.648 121.492H220.633C220.603 121.541 220.564 121.585 220.518 121.624C220.472 121.663 220.417 121.694 220.354 121.717C220.291 121.74 220.216 121.752 220.13 121.752ZM220.23 121.462C220.383 121.462 220.491 121.418 220.554 121.33C220.617 121.242 220.649 121.11 220.651 120.933V120.886C220.651 120.698 220.621 120.554 220.56 120.454C220.499 120.352 220.388 120.302 220.227 120.302C220.099 120.302 220.001 120.354 219.933 120.458C219.866 120.561 219.833 120.706 219.833 120.891C219.833 121.076 219.866 121.218 219.933 121.316C220.001 121.413 220.1 121.462 220.23 121.462ZM221.25 120.04H221.638L221.983 121C221.998 121.044 222.012 121.087 222.024 121.129C222.037 121.171 222.048 121.212 222.058 121.252C222.068 121.293 222.076 121.333 222.082 121.374H222.091C222.101 121.321 222.115 121.263 222.133 121.198C222.153 121.132 222.174 121.066 222.197 121L222.528 120.04H222.913L222.191 121.953C222.15 122.062 222.099 122.155 222.038 122.232C221.978 122.31 221.907 122.369 221.825 122.408C221.743 122.449 221.65 122.469 221.544 122.469C221.494 122.469 221.45 122.466 221.412 122.46C221.375 122.455 221.343 122.449 221.316 122.443V122.158C221.338 122.163 221.364 122.167 221.397 122.171C221.429 122.175 221.463 122.177 221.497 122.177C221.561 122.177 221.616 122.165 221.663 122.139C221.709 122.114 221.749 122.078 221.781 122.032C221.814 121.986 221.84 121.934 221.862 121.875L221.921 121.717L221.25 120.04Z" fill="white"/>
<mask id="mask0_2163_2808" style="mask-type:alpha" maskUnits="userSpaceOnUse" x="225" y="118" width="5" height="5">
<rect x="225.329" y="118.277" width="3.88803" height="3.88803" fill="#D9D9D9"/>
</mask>
<g mask="url(#mask0_2163_2808)">
<path d="M226.373 121.004C226.325 120.978 226.288 120.942 226.261 120.897C226.234 120.852 226.22 120.801 226.22 120.745V120.042L225.897 119.863C225.87 119.848 225.85 119.83 225.838 119.808C225.826 119.786 225.819 119.762 225.819 119.736C225.819 119.709 225.826 119.685 225.838 119.663C225.85 119.641 225.87 119.623 225.897 119.608L227.133 118.934C227.155 118.922 227.178 118.913 227.201 118.907C227.225 118.901 227.248 118.898 227.273 118.898C227.297 118.898 227.321 118.901 227.345 118.907C227.368 118.913 227.391 118.922 227.413 118.934L228.809 119.694C228.834 119.708 228.854 119.726 228.867 119.749C228.88 119.772 228.887 119.797 228.887 119.823V120.779C228.887 120.814 228.875 120.842 228.852 120.866C228.828 120.889 228.8 120.901 228.765 120.901C228.731 120.901 228.702 120.889 228.679 120.866C228.655 120.842 228.644 120.814 228.644 120.779V119.87L228.326 120.042V120.745C228.326 120.801 228.312 120.852 228.285 120.897C228.258 120.942 228.221 120.978 228.173 121.004L227.413 121.415C227.391 121.428 227.368 121.437 227.345 121.443C227.321 121.448 227.297 121.451 227.273 121.451C227.248 121.451 227.225 121.448 227.201 121.443C227.178 121.437 227.155 121.428 227.133 121.415L226.373 121.004ZM227.254 120.326C227.262 120.33 227.268 120.332 227.274 120.332C227.279 120.332 227.286 120.33 227.293 120.326L228.381 119.736L227.293 119.147C227.286 119.143 227.279 119.141 227.274 119.141C227.268 119.141 227.262 119.143 227.254 119.147L226.165 119.736L227.254 120.326ZM227.253 121.205C227.26 121.209 227.267 121.211 227.273 121.211C227.279 121.211 227.286 121.209 227.293 121.205L228.06 120.791C228.068 120.786 228.074 120.78 228.078 120.773C228.081 120.766 228.083 120.758 228.083 120.747V120.172L227.415 120.538C227.393 120.551 227.37 120.56 227.346 120.566C227.322 120.571 227.298 120.574 227.273 120.574C227.248 120.574 227.224 120.571 227.2 120.566C227.176 120.56 227.153 120.551 227.131 120.538L226.463 120.172V120.747C226.463 120.756 226.465 120.764 226.468 120.772C226.472 120.779 226.478 120.786 226.486 120.791L227.253 121.205Z" fill="#F8FAFB"/>
</g>
</g>
<path fill-rule="evenodd" clip-rule="evenodd" d="M350.956 75.7824C355.337 70.6401 358.302 64.3381 357.807 57.2765C356.379 36.9302 328.056 41.4061 322.547 51.6752C317.038 61.9443 317.692 87.9927 324.813 89.8281C327.652 90.56 333.701 88.767 339.858 85.0561L335.994 112.395H358.812L350.956 75.7824Z" fill="#B28B67"/>
<path fill-rule="evenodd" clip-rule="evenodd" d="M367.753 50.5046C368.49 49.7743 368.892 48.7318 369.24 47.742C369.601 46.7137 369.952 45.6749 370.192 44.6046C370.671 42.4662 370.676 40.007 369.15 38.3465C367.927 37.0149 366.091 36.4177 364.397 36.2879C363.268 36.2013 362.108 36.3594 361.026 36.7151C359.953 37.068 359.027 37.7713 357.987 38.2078C357.947 35.9033 357.552 33.492 356.383 31.5244C355.258 29.6312 353.464 28.5687 351.422 28.2877C349.325 27.9992 347.255 28.4898 345.378 29.5049C344.908 29.7591 344.442 30.0254 343.997 30.3268C343.624 30.5792 343.236 30.8831 342.798 30.9858C342.31 31.1004 342.068 30.8185 341.751 30.4625C341.38 30.0451 340.961 29.6775 340.517 29.3516C338.557 27.9108 335.985 27.3184 333.714 28.182C332.668 28.5799 331.651 29.2557 330.941 30.1869C330.308 31.0169 329.857 32.3336 328.983 32.9119C328.613 33.1574 328.351 32.8322 328.013 32.5918C327.507 32.2306 327.023 31.832 326.51 31.4807C325.79 30.987 325.01 30.6178 324.174 30.4245C322.951 30.1415 321.261 30.2079 320.911 31.8097C320.78 32.4114 320.881 33.0549 320.923 33.6611C320.981 34.4935 321.042 35.3257 321.114 36.1569C321.169 36.788 321.239 37.3975 321.358 38.0173C321.421 38.3476 321.62 38.9635 321.478 39.2943C321.301 39.7078 320.484 39.4727 320.135 39.4871C319.446 39.5156 318.753 39.6365 318.116 39.9311C317.622 40.1595 317.102 40.4953 316.894 41.0616C316.766 41.4095 316.799 41.7668 316.86 42.1247C316.933 42.5542 316.849 42.782 316.795 43.2154C315.869 42.7594 312.66 41.7463 312.257 43.4058C312.122 43.9584 312.428 44.5828 312.662 45.0488C313.071 45.8662 313.608 46.6133 314.157 47.3257C315.303 48.8121 316.67 50.0941 318.141 51.1904C316.417 51.9566 315.968 54.2166 317.46 55.5631C318.119 56.1576 319.004 56.29 319.836 56.2519C320.14 56.238 320.578 56.1211 320.818 56.1741C320.946 56.2026 321.084 56.3117 321.263 56.3239C322.436 56.4043 323.76 56.1217 324.906 55.8614C326.949 55.3977 328.883 54.4298 330.463 52.9556C330.868 52.5775 331.202 52.3598 331.748 52.3654C332.226 52.3702 332.695 52.5013 333.172 52.5134C334.435 52.5456 335.574 51.928 336.747 51.517C336.819 53.1017 337.27 54.8471 337.919 56.2728C338.447 57.4353 339.551 57.6043 340.636 57.7063C344.105 58.0327 347.586 57.6684 351.059 57.6733C347.697 58.4332 344.223 58.7465 340.89 59.6408C339.384 60.0449 340.534 61.0601 341.178 61.7639C342.239 62.9228 343.027 64.3587 343.574 65.8714C345.219 63.7275 348.126 62.3148 350.702 62.9735C353.548 63.7011 355.551 67.5495 353.732 70.3162C352.675 71.9223 350.767 72.5423 349.18 73.2324C350.418 74.5199 350.718 76.4216 351.463 78.0234C351.831 78.8134 352.347 79.7065 353.169 79.9818C353.473 80.0837 353.83 80.0924 354.07 80.3404C354.367 80.6474 354.438 80.9906 354.817 81.2544C356.332 82.3076 358.698 82.2264 360.041 80.8521C361.255 79.6092 360.939 77.6423 359.925 76.3822C361.539 75.7094 364.48 74.844 363.839 72.3293C367.336 72.097 375.829 66.4244 371.134 62.2792C373.711 60.8231 376.077 57.2647 374.423 54.1279C373.148 51.7124 370.185 50.6327 367.753 50.5046Z" fill="#191847"/>
<path fill-rule="evenodd" clip-rule="evenodd" d="M400.05 231.239H326.601L316.977 349.131H426.312L400.05 231.239Z" fill="#8AA1B1"/>
<path fill-rule="evenodd" clip-rule="evenodd" d="M400.05 231.239H377.461L363.94 349.131H426.312L400.05 231.239Z" fill="black" fill-opacity="0.1"/>
<path fill-rule="evenodd" clip-rule="evenodd" d="M242.864 211.041C235.033 206.339 221.894 212.38 221.903 219.105C221.93 239.227 240.294 334.062 241.253 340.057C242.212 346.052 252.483 347.636 253.081 340.077C254.032 328.049 255.8 286.413 254.031 267.141C253.301 259.186 252.515 251.61 251.74 244.851C261.376 262.252 276.279 287.167 296.448 319.594L307.397 314.592C298.799 286.264 291.749 266.265 286.246 254.595C276.825 234.613 267.99 217.502 264.272 211.474C258.424 201.993 248.243 205.301 242.864 211.041Z" fill="#B28B67"/>
<path fill-rule="evenodd" clip-rule="evenodd" d="M306.615 298.861L269.034 209.835C260.031 195.353 234.79 212.782 237.86 221.182C244.83 240.251 280.279 301.988 282.356 307.669L306.615 298.861Z" fill="#B94CAB"/>
<path fill-rule="evenodd" clip-rule="evenodd" d="M308.703 308.979C311.044 310.906 312.567 312.48 313.271 313.701C314.129 315.186 315.132 317.495 316.282 320.629L269.843 347.441C266.333 344.148 265.786 341.592 268.202 339.773C270.618 337.954 272.613 336.419 274.184 335.17L290.213 313.086C290.522 312.661 291.116 312.566 291.541 312.875C291.548 312.88 291.556 312.885 291.563 312.891L294.893 315.456C297.949 315.189 300.229 314.621 301.734 313.752C302.956 313.046 304.36 311.578 305.944 309.346C306.552 308.49 307.739 308.289 308.595 308.897C308.632 308.923 308.668 308.95 308.703 308.979Z" fill="#E4E4E4"/>
<path fill-rule="evenodd" clip-rule="evenodd" d="M255.486 335.252C256.549 338.092 257.081 340.216 257.081 341.626C257.081 343.34 256.795 345.842 256.224 349.131H202.601C201.207 344.525 202.012 342.038 205.014 341.67C208.016 341.303 210.51 340.971 212.496 340.675L237.42 329.564C237.899 329.35 238.461 329.566 238.675 330.045C238.679 330.054 238.682 330.062 238.686 330.07L240.288 333.956C243.067 335.253 245.326 335.901 247.063 335.901C248.475 335.901 250.425 335.331 252.913 334.191C253.867 333.753 254.996 334.172 255.433 335.127C255.452 335.168 255.47 335.21 255.486 335.252Z" fill="#E4E4E4"/>
<path fill-rule="evenodd" clip-rule="evenodd" d="M219.27 225.946C219.27 251.204 231.266 310.122 231.273 315.684L257.082 315.704C253.304 263.132 251.965 236.563 253.063 235.997C254.711 235.147 320.614 242.576 340.38 242.576C368.882 242.576 380.672 224.603 381.629 191.308H325.168C313.672 192.538 253.708 204.633 231.438 208.79C221.904 210.57 219.27 218.988 219.27 225.946Z" fill="#D875CB"/>
<path fill-rule="evenodd" clip-rule="evenodd" d="M316.372 132.08L283.372 114.006C277.884 107.489 272.477 102.428 267.151 98.8225C265.524 98.1431 262.678 97.7318 265.339 102.456C268.001 107.18 270.588 112.269 269.232 113.724C267.876 115.18 264.495 113.147 262.877 115.565C261.799 117.177 267.575 119.723 280.207 123.205L304.186 145.16L316.372 132.08ZM264.688 147.329L250.192 139.366C248.158 131.627 245.727 127.733 242.898 127.685C240.725 126.674 244.51 136.453 240.39 135.605C236.271 134.757 226.217 127.279 224.484 128.797C221.921 131.043 224.207 137.94 226.899 141.371C231.932 147.784 236.098 149.976 246.397 152.848C251.782 154.349 257.604 157.359 263.862 161.876L264.688 147.329Z" fill="#997659"/>
<path fill-rule="evenodd" clip-rule="evenodd" d="M332.444 128.052C320.885 127.93 305.471 125.489 289.025 115.049L282.566 129.453C293.91 140.711 309.862 149.961 323.809 149.569C334.8 149.261 340.418 135.966 332.444 128.052Z" fill="#2C3083"/>
<path fill-rule="evenodd" clip-rule="evenodd" d="M316.879 151.151C304.608 154.212 284.03 150.603 255.146 140.324C247.981 155.147 244.669 165.714 245.21 172.026C269.988 184.969 291.226 190.74 308.723 191.121C308.167 201.503 309.43 211.381 313.675 220.408C322.402 238.965 373.504 221.779 390.687 225.162C401.446 190.217 380.642 176.016 380.625 153.657C380.607 129.171 360.946 91.4814 358.053 91.4814H331.673C330.217 110.182 322.891 130.791 316.879 151.151Z" fill="#4348AB"/>
<path fill-rule="evenodd" clip-rule="evenodd" d="M34.539 204.672C43.2225 219.24 53.3359 233.345 59.4094 249.273C59.1647 247.395 58.9051 245.52 58.6147 243.647C57.0736 233.72 55.1583 223.865 53.1457 214.022C52.1207 209.01 51.0367 204.017 49.9249 199.024C49.3269 196.342 48.7363 193.659 48.126 190.979C47.9781 190.33 47.8511 189.197 47.6661 188.048C53.5685 207.417 59.2605 226.8 63.424 246.635C63.9702 249.238 64.4353 251.836 64.8163 254.43C64.9466 253.839 65.0748 253.247 65.2151 252.657C66.8997 245.582 69.4267 238.564 72.4356 231.95C73.8739 228.787 75.5261 225.693 77.4715 222.81C78.6845 221.013 81.5453 218.876 82.6519 217.036C76.5999 228.136 74.4146 242.025 70.9202 254.092C70.0673 257.037 69.209 259.977 68.3681 262.923C73.6379 252.354 81.814 243.671 93.1818 239.908C79.4216 249 71.1681 264.922 65.6063 281.207C65.588 281.4 65.5662 281.593 65.5474 281.786C67.184 278.68 69.2455 275.871 72.0396 273.903C78.0196 269.691 84.6535 270.918 90.4544 274.531C85.9016 271.637 77.6736 274.272 73.8429 277.214C71.1006 279.319 68.7569 282.144 66.7217 284.9C66.234 285.561 65.5687 286.331 64.8659 287.154C63.8804 293.551 62.2745 299.903 60.0009 306.206C60.3762 304.397 60.1049 301.504 60.2089 300.155C60.2202 300.009 60.2294 299.863 60.2407 299.718C59.8951 301.098 59.5612 302.462 59.2397 303.804C59.8787 301.243 60.2261 298.569 60.4972 295.868C60.567 294.707 60.6351 293.546 60.7071 292.385C60.6843 290.182 60.5936 287.97 60.4401 285.754C59.8959 283.601 59.2865 281.57 58.784 279.881C56.9707 273.787 54.3125 267.949 51.0407 262.502C48.0555 257.531 44.4822 253.029 40.3571 248.957C38.1333 246.763 35.806 244.673 33.5114 242.554C32.6817 241.788 31.1986 239.904 29.916 238.922C39.2572 244.072 48.8719 249.644 55.6864 257.941C54.8875 254.874 54.0197 251.849 53.1018 248.885C48.445 233.848 42.5651 218.263 34.539 204.672Z" fill="#81DCA6"/>
<path fill-rule="evenodd" clip-rule="evenodd" d="M43.8721 287.133C43.8721 303.832 45.1945 317.37 62.9448 317.37C80.6951 317.37 82.0176 303.832 82.0176 287.133" fill="#806452"/>
<defs>
<filter id="filter0_ddiii_2163_2808" x="189.112" y="111.112" width="49.7663" height="18.2194" filterUnits="userSpaceOnUse" color-interpolation-filters="sRGB">
<feFlood flood-opacity="0" result="BackgroundImageFix"/>
<feColorMatrix in="SourceAlpha" type="matrix" values="0 0 0 0 0 0 0 0 0 0 0 0 0 0 0 0 0 0 127 0" result="hardAlpha"/>
<feMorphology radius="0.777606" operator="dilate" in="SourceAlpha" result="effect1_dropShadow_2163_2808"/>
<feOffset/>
<feGaussianBlur stdDeviation="1.55521"/>
<feComposite in2="hardAlpha" operator="out"/>
<feColorMatrix type="matrix" values="0 0 0 0 0.560784 0 0 0 0 0.364706 0 0 0 0 1 0 0 0 0.4 0"/>
<feBlend mode="normal" in2="BackgroundImageFix" result="effect1_dropShadow_2163_2808"/>
<feColorMatrix in="SourceAlpha" type="matrix" values="0 0 0 0 0 0 0 0 0 0 0 0 0 0 0 0 0 0 127 0" result="hardAlpha"/>
<feOffset dy="0.194401"/>
<feGaussianBlur stdDeviation="0.194401"/>
<feComposite in2="hardAlpha" operator="out"/>
<feColorMatrix type="matrix" values="0 0 0 0 0.419121 0 0 0 0 0.149323 0 0 0 0 0.7625 0 0 0 1 0"/>
<feBlend mode="normal" in2="effect1_dropShadow_2163_2808" result="effect2_dropShadow_2163_2808"/>
<feBlend mode="normal" in="SourceGraphic" in2="effect2_dropShadow_2163_2808" result="shape"/>
<feColorMatrix in="SourceAlpha" type="matrix" values="0 0 0 0 0 0 0 0 0 0 0 0 0 0 0 0 0 0 127 0" result="hardAlpha"/>
<feMorphology radius="0.388803" operator="erode" in="SourceAlpha" result="effect3_innerShadow_2163_2808"/>
<feOffset/>
<feGaussianBlur stdDeviation="1.16641"/>
<feComposite in2="hardAlpha" operator="arithmetic" k2="-1" k3="1"/>
<feColorMatrix type="matrix" values="0 0 0 0 1 0 0 0 0 1 0 0 0 0 1 0 0 0 0.04 0"/>
<feBlend mode="normal" in2="shape" result="effect3_innerShadow_2163_2808"/>
<feColorMatrix in="SourceAlpha" type="matrix" values="0 0 0 0 0 0 0 0 0 0 0 0 0 0 0 0 0 0 127 0" result="hardAlpha"/>
<feMorphology radius="0.388803" operator="erode" in="SourceAlpha" result="effect4_innerShadow_2163_2808"/>
<feOffset/>
<feGaussianBlur stdDeviation="1.16641"/>
<feComposite in2="hardAlpha" operator="arithmetic" k2="-1" k3="1"/>
<feColorMatrix type="matrix" values="0 0 0 0 1 0 0 0 0 1 0 0 0 0 1 0 0 0 0.04 0"/>
<feBlend mode="normal" in2="effect3_innerShadow_2163_2808" result="effect4_innerShadow_2163_2808"/>
<feColorMatrix in="SourceAlpha" type="matrix" values="0 0 0 0 0 0 0 0 0 0 0 0 0 0 0 0 0 0 127 0" result="hardAlpha"/>
<feMorphology radius="0.777606" operator="erode" in="SourceAlpha" result="effect5_innerShadow_2163_2808"/>
<feOffset/>
<feGaussianBlur stdDeviation="1.55521"/>
<feComposite in2="hardAlpha" operator="arithmetic" k2="-1" k3="1"/>
<feColorMatrix type="matrix" values="0 0 0 0 1 0 0 0 0 1 0 0 0 0 1 0 0 0 0.12 0"/>
<feBlend mode="normal" in2="effect4_innerShadow_2163_2808" result="effect5_innerShadow_2163_2808"/>
</filter>
<linearGradient id="paint0_linear_2163_2808" x1="237.192" y1="110.975" x2="230.918" y2="137.471" gradientUnits="userSpaceOnUse">
<stop stop-color="#2E9BFF"/>
<stop offset="1" stop-color="#FF14FF"/>
</linearGradient>
</defs>
</svg>
