<svg width="70" height="14" viewBox="0 0 70 14" fill="none" xmlns="http://www.w3.org/2000/svg">
<g id="STARS">
<path id="Star 8" d="M7.02632 1.57766C7.14662 1.29046 7.55353 1.29046 7.67382 1.57766L8.97555 4.68561C9.02616 4.80643 9.13983 4.88902 9.27038 4.89982L12.6285 5.17742C12.9388 5.20307 13.0645 5.59008 12.8286 5.79323L10.275 7.99165C10.1757 8.07712 10.1323 8.21075 10.1624 8.33825L10.9361 11.6178C11.0075 11.9208 10.6783 12.16 10.4122 11.9984L7.53229 10.2491C7.42033 10.1811 7.27982 10.1811 7.16786 10.2491L4.28793 11.9984C4.0218 12.16 3.6926 11.9208 3.7641 11.6178L4.53778 8.33825C4.56786 8.21075 4.52444 8.07712 4.42517 7.99165L1.87159 5.79323C1.63562 5.59008 1.76136 5.20307 2.07168 5.17742L5.42977 4.89982C5.56032 4.88902 5.67399 4.80643 5.7246 4.68561L7.02632 1.57766Z" fill="#071C33"/>
<path id="Star 9" d="M21.0029 1.57766C21.1232 1.29046 21.5301 1.29046 21.6504 1.57766L22.9521 4.68561C23.0027 4.80643 23.1164 4.88902 23.2469 4.89982L26.605 5.17742C26.9153 5.20307 27.0411 5.59008 26.8051 5.79323L24.2515 7.99165C24.1523 8.07712 24.1088 8.21075 24.1389 8.33825L24.9126 11.6178C24.9841 11.9208 24.6549 12.16 24.3888 11.9984L21.5089 10.2491C21.3969 10.1811 21.2564 10.1811 21.1444 10.2491L18.2645 11.9984C17.9984 12.16 17.6692 11.9208 17.7407 11.6178L18.5143 8.33825C18.5444 8.21075 18.501 8.07712 18.4017 7.99165L15.8482 5.79323C15.6122 5.59008 15.7379 5.20307 16.0482 5.17742L19.4063 4.89982C19.5369 4.88902 19.6506 4.80643 19.7012 4.68561L21.0029 1.57766Z" fill="#071C33"/>
<path id="Star 10" d="M34.9873 1.57766C35.1076 1.29046 35.5145 1.29046 35.6348 1.57766L36.9365 4.68561C36.9871 4.80643 37.1008 4.88902 37.2313 4.89982L40.5894 5.17742C40.8997 5.20307 41.0255 5.59008 40.7895 5.79323L38.2359 7.99165C38.1366 8.07712 38.0932 8.21075 38.1233 8.33825L38.897 11.6178C38.9685 11.9208 38.6393 12.16 38.3732 11.9984L35.4932 10.2491C35.3813 10.1811 35.2408 10.1811 35.1288 10.2491L32.2489 11.9984C31.9827 12.16 31.6535 11.9208 31.725 11.6178L32.4987 8.33825C32.5288 8.21075 32.4854 8.07712 32.3861 7.99165L29.8325 5.79323C29.5966 5.59008 29.7223 5.20307 30.0326 5.17742L33.3907 4.89982C33.5213 4.88902 33.6349 4.80643 33.6855 4.68561L34.9873 1.57766Z" fill="#071C33"/>
<path id="Star 11" d="M48.9638 1.57766C49.0841 1.29046 49.491 1.29046 49.6113 1.57766L50.913 4.68561C50.9637 4.80643 51.0773 4.88902 51.2079 4.89982L54.566 5.17742C54.8763 5.20307 55.002 5.59008 54.7661 5.79323L52.2125 7.99165C52.1132 8.07712 52.0698 8.21075 52.0999 8.33825L52.8736 11.6178C52.945 11.9208 52.6158 12.16 52.3497 11.9984L49.4698 10.2491C49.3578 10.1811 49.2173 10.1811 49.1054 10.2491L46.2254 11.9984C45.9593 12.16 45.6301 11.9208 45.7016 11.6178L46.4753 8.33825C46.5054 8.21075 46.4619 8.07712 46.3627 7.99165L43.8091 5.79323C43.5731 5.59008 43.6989 5.20307 44.0092 5.17742L47.3673 4.89982C47.4978 4.88902 47.6115 4.80643 47.6621 4.68561L48.9638 1.57766Z" fill="#071C33"/>
<path id="Star 12" d="M62.9404 1.57668C63.0607 1.28948 63.4676 1.28948 63.5879 1.57668L64.8896 4.68463C64.9402 4.80546 65.0539 4.88805 65.1844 4.89884L68.5425 5.17644C68.8528 5.2021 68.9786 5.5891 68.7426 5.79225L66.189 7.99068C66.0898 8.07614 66.0463 8.20978 66.0764 8.33727L66.8501 11.6168C66.9216 11.9198 66.5924 12.159 66.3263 11.9974L63.4464 10.2481C63.3344 10.1801 63.1939 10.1801 63.0819 10.2481L60.202 11.9974C59.9359 12.159 59.6067 11.9198 59.6782 11.6168L60.4518 8.33727C60.4819 8.20978 60.4385 8.07614 60.3392 7.99068L57.7857 5.79225C57.5497 5.5891 57.6754 5.2021 57.9857 5.17644L61.3438 4.89884C61.4744 4.88805 61.5881 4.80546 61.6387 4.68463L62.9404 1.57668Z" fill="#071C33"/>
</g>
</svg>
