<svg width="32" height="31" viewBox="0 0 32 31" fill="none" xmlns="http://www.w3.org/2000/svg">
<g id="Group 43167">
<path id="Vector" d="M31.2395 5.01689C31.1325 4.60156 30.7046 4.39389 30.2767 4.39389H27.0675V1.27887C27.0675 0.863538 26.8535 0.448203 26.4256 0.344369C25.9977 0.136701 25.5698 0.240535 25.2489 0.552037L20.9699 4.70539C20.7559 4.91306 20.649 5.12073 20.649 5.43223V9.17025L14.5514 15.0888C14.1235 15.5041 14.1235 16.1271 14.5514 16.5424C14.7653 16.7501 15.0863 16.8539 15.3002 16.8539C15.5142 16.8539 15.8351 16.7501 16.049 16.5424L22.1466 10.6239H25.9977C26.3186 10.6239 26.5326 10.5201 26.7465 10.3124L31.0255 6.15906C31.3465 5.84756 31.4534 5.43223 31.2395 5.01689Z" fill="#8F5DFF"/>
<path id="Vector_2" d="M17.5444 17.9962C17.0096 18.6192 16.1538 18.9307 15.298 18.9307C14.4422 18.9307 13.5864 18.6192 13.0515 17.9962C11.7678 16.7502 11.7678 14.7774 13.0515 13.6352L16.0468 10.7279C15.8328 10.624 15.5119 10.624 15.298 10.624C12.3027 10.624 9.94922 12.9084 9.94922 15.8157C9.94922 18.7231 12.3027 21.0074 15.298 21.0074C18.2933 21.0074 20.6467 18.7231 20.6467 15.8157C20.6467 15.608 20.6467 15.2965 20.5397 15.0889L17.5444 17.9962Z" fill="#8F5DFF"/>
<path id="Vector_3" d="M28.2466 11.7665C27.7117 12.3895 26.8559 12.701 26.0001 12.701H23.0048L22.256 13.4279C22.5769 14.1547 22.6839 14.9854 22.6839 15.816C22.6839 19.8656 19.3677 23.0844 15.1957 23.0844C11.0237 23.0844 7.70744 19.8656 7.70744 15.816C7.70744 11.7665 11.0237 8.54767 15.1957 8.54767C16.0515 8.54767 16.9073 8.75533 17.6561 8.963L18.5119 8.34V5.43265C18.5119 4.60198 18.8328 3.77131 19.4747 3.25214L20.5444 2.2138C18.8328 1.5908 17.1212 1.2793 15.3027 1.2793C7.06559 1.2793 0.326172 7.82083 0.326172 15.816C0.326172 23.8112 7.06559 30.3528 15.3027 30.3528C23.5397 30.3528 30.2791 23.8112 30.2791 15.816C30.2791 14.0509 29.9582 12.3895 29.3164 10.7282L28.2466 11.7665Z" fill="#8F5DFF"/>
</g>
</svg>
