<svg width="16" height="18" viewBox="0 0 16 18" fill="none" xmlns="http://www.w3.org/2000/svg">
<path id="Vector" d="M15.5 5.09375C14.4644 5.09251 13.4715 4.68056 12.7392 3.94827C12.0069 3.21597 11.595 2.22312 11.5938 1.1875C11.5938 1.06318 11.5444 0.943951 11.4565 0.856044C11.3685 0.768136 11.2493 0.71875 11.125 0.71875H8C7.87568 0.71875 7.75645 0.768136 7.66854 0.856044C7.58064 0.943951 7.53125 1.06318 7.53125 1.1875V11.5C7.53106 11.8075 7.44836 12.1094 7.29178 12.3741C7.13519 12.6388 6.91046 12.8566 6.64101 13.0048C6.37157 13.1531 6.06728 13.2263 5.75989 13.2169C5.4525 13.2075 5.15327 13.1158 4.8934 12.9513C4.63353 12.7869 4.42254 12.5557 4.28245 12.2819C4.14235 12.0081 4.07828 11.7018 4.09691 11.3948C4.11554 11.0879 4.21619 10.7915 4.38836 10.5367C4.56054 10.2819 4.79793 10.0779 5.07578 9.94609C5.15593 9.9081 5.22366 9.84814 5.2711 9.77319C5.31853 9.69823 5.34372 9.61136 5.34375 9.52266V6.1875C5.34368 6.11937 5.32876 6.05208 5.30003 5.9903C5.2713 5.92853 5.22945 5.87376 5.1774 5.82981C5.12534 5.78586 5.06433 5.75378 4.99861 5.73582C4.93289 5.71785 4.86405 5.71443 4.79688 5.72578C2.07812 6.20937 0.03125 8.69141 0.03125 11.5C0.03125 13.0333 0.640344 14.5038 1.72454 15.588C2.80873 16.6722 4.27922 17.2812 5.8125 17.2812C7.34578 17.2812 8.81627 16.6722 9.90046 15.588C10.9847 14.5038 11.5938 13.0333 11.5938 11.5V8.13516C12.7856 8.80759 14.1315 9.15941 15.5 9.15625C15.6243 9.15625 15.7435 9.10686 15.8315 9.01896C15.9194 8.93105 15.9688 8.81182 15.9688 8.6875V5.5625C15.9688 5.43818 15.9194 5.31895 15.8315 5.23104C15.7435 5.14314 15.6243 5.09375 15.5 5.09375ZM15.0312 8.20312C13.7216 8.11949 12.4623 7.66749 11.3984 6.89922C11.3283 6.84885 11.2456 6.81884 11.1595 6.81248C11.0734 6.80612 10.9872 6.82366 10.9105 6.86317C10.8337 6.90269 10.7693 6.96264 10.7245 7.03641C10.6796 7.11018 10.656 7.19491 10.6562 7.28125V11.5C10.6562 12.7846 10.1459 14.0167 9.23755 14.925C8.32917 15.8334 7.09714 16.3438 5.8125 16.3438C4.52786 16.3438 3.29583 15.8334 2.38745 14.925C1.47907 14.0167 0.96875 12.7846 0.96875 11.5C0.96875 9.33438 2.41172 7.4 4.40625 6.78281V9.24609C4.01398 9.49089 3.6924 9.83384 3.47332 10.241C3.25424 10.6482 3.14525 11.1056 3.15713 11.5678C3.169 12.03 3.30134 12.4812 3.54104 12.8766C3.78074 13.272 4.11951 13.598 4.52384 13.8223C4.92817 14.0466 5.38405 14.1615 5.8464 14.1556C6.30875 14.1497 6.76155 14.0232 7.16002 13.7886C7.5585 13.5541 7.88883 13.2195 8.11837 12.8181C8.3479 12.4167 8.46867 11.9624 8.46875 11.5V1.65625H10.6789C10.7888 2.77323 11.2827 3.81752 12.0763 4.61116C12.87 5.40479 13.9143 5.89866 15.0312 6.00859V8.20312Z" fill="#8F5DFF"/>
</svg>
