<svg width="20" height="22" viewBox="0 0 20 22" fill="none" xmlns="http://www.w3.org/2000/svg">
<path d="M19.3194 5.50753C18.063 5.50753 16.9013 5.09016 15.9719 4.38881C14.9048 3.5842 14.1346 2.40094 13.8635 1.04127C13.7947 0.705652 13.7603 0.357129 13.756 0H10.1632V9.81459L10.1589 15.1887C10.1589 16.6259 9.22087 17.8435 7.92574 18.2738C7.5471 18.3986 7.14264 18.4588 6.72097 18.433C6.17882 18.4029 5.6754 18.2394 5.23221 17.9769C4.29421 17.4176 3.66171 16.4021 3.6445 15.2361C3.61868 13.4203 5.08592 11.9358 6.90168 11.9358C7.25881 11.9358 7.60303 11.9961 7.92574 12.0994V8.45922C7.58582 8.40759 7.2416 8.38177 6.88878 8.38177C4.9009 8.38177 3.04211 9.2079 1.71256 10.6967C0.710015 11.8197 0.107629 13.2568 0.0129685 14.7628C-0.107509 16.7377 0.615355 18.618 2.01805 20.0035C2.22459 20.2057 2.43972 20.3951 2.66777 20.5715C3.86824 21.4966 5.33978 22 6.88878 22C7.2373 22 7.58582 21.9742 7.92574 21.9226C9.37147 21.7074 10.7053 21.0448 11.7595 20.0035C13.0546 18.7256 13.7689 17.026 13.7775 15.2189L13.7603 7.18991C14.3756 7.66751 15.0511 8.05906 15.7783 8.36456C16.9056 8.84217 18.1018 9.07882 19.3281 9.07882V5.50323C19.3324 5.50753 19.3194 5.50753 19.3194 5.50753Z" fill="white"/>
</svg>
