<svg width="21" height="20" viewBox="0 0 21 20" fill="none" xmlns="http://www.w3.org/2000/svg">
<path d="M15.1158 11.4924C15.0768 11.4736 13.6188 10.7556 13.3598 10.6624C13.2541 10.6244 13.1408 10.5874 13.0203 10.5874C12.8233 10.5874 12.6581 10.6854 12.5293 10.8781C12.3836 11.0946 11.9428 11.6101 11.8066 11.7639C11.7888 11.7841 11.7646 11.8084 11.7501 11.8084C11.7371 11.8084 11.5113 11.7154 11.4431 11.6859C9.87906 11.0064 8.69181 9.37263 8.52906 9.09713C8.50581 9.05763 8.50481 9.03963 8.50456 9.03963C8.51031 9.01863 8.56281 8.96588 8.59006 8.93863C8.66956 8.86013 8.75556 8.75638 8.83881 8.65638C8.87831 8.60888 8.91781 8.56138 8.95656 8.51663C9.07731 8.37613 9.13106 8.26713 9.19356 8.14063L9.22631 8.07488C9.37856 7.77238 9.24856 7.51738 9.20656 7.43488C9.17206 7.36588 8.55631 5.88013 8.49106 5.72388C8.33356 5.34713 8.12556 5.17188 7.83656 5.17188C7.80981 5.17188 7.83656 5.17188 7.72406 5.17663C7.58706 5.18238 6.84131 5.28063 6.51156 5.48838C6.16181 5.70888 5.57031 6.41163 5.57031 7.64738C5.57031 8.75963 6.27606 9.80988 6.57931 10.2094C6.58681 10.2194 6.60056 10.2399 6.62081 10.2691C7.78131 11.9641 9.22831 13.2201 10.6948 13.8061C12.1068 14.3701 12.7756 14.4354 13.1556 14.4354C13.3153 14.4354 13.4431 14.4229 13.5561 14.4116L13.6276 14.4049C14.1153 14.3616 15.1873 13.8061 15.4311 13.1286C15.6231 12.5949 15.6738 12.0119 15.5461 11.8001C15.4586 11.6561 15.3076 11.5839 15.1168 11.4921L15.1158 11.4924Z" fill="white"/>
<path d="M10.4939 0C5.07743 0 0.670681 4.37375 0.670681 9.7495C0.670681 11.4883 1.13593 13.1903 2.01743 14.68L0.330181 19.657C0.298681 19.7498 0.322181 19.8525 0.390681 19.9223C0.440181 19.9727 0.507431 20 0.576181 20C0.602431 20 0.628931 19.996 0.654931 19.9878L5.84443 18.3388C7.26468 19.0975 8.86968 19.498 10.4939 19.498C15.9099 19.498 20.3164 15.125 20.3164 9.7495C20.3164 4.374 15.9102 0 10.4939 0ZM10.4939 17.4673C8.96543 17.4673 7.48493 17.026 6.21243 16.1908C6.16968 16.1628 6.11993 16.1483 6.06993 16.1483C6.04343 16.1483 6.01693 16.1523 5.99118 16.1605L3.39143 16.9867L4.23068 14.5107C4.25793 14.4305 4.24418 14.3423 4.19418 14.274C3.22518 12.9498 2.71293 11.3853 2.71293 9.7495C2.71293 5.4935 6.20343 2.03075 10.4939 2.03075C14.7844 2.03075 18.2739 5.49325 18.2739 9.7495C18.2739 14.005 14.7839 17.467 10.4939 17.467V17.4673Z" fill="white"/>
</svg>
