<svg width="20" height="20" viewBox="0 0 20 20" fill="none" xmlns="http://www.w3.org/2000/svg">
<g id="youtube">
<path id="Icon" d="M17.9054 5.815C17.8163 5.45906 17.6349 5.13293 17.3794 4.86955C17.1239 4.60618 16.8035 4.41489 16.4504 4.315C15.1604 4 10.0004 4 10.0004 4C10.0004 4 4.84043 4 3.55043 4.345C3.19736 4.44489 2.87691 4.63618 2.62144 4.89955C2.36597 5.16293 2.18452 5.48906 2.09543 5.845C1.85934 7.15417 1.74386 8.48223 1.75043 9.8125C1.74201 11.1528 1.8575 12.491 2.09543 13.81C2.19365 14.1549 2.37916 14.4686 2.63404 14.7209C2.88891 14.9731 3.20454 15.1554 3.55043 15.25C4.84043 15.595 10.0004 15.595 10.0004 15.595C10.0004 15.595 15.1604 15.595 16.4504 15.25C16.8035 15.1501 17.1239 14.9588 17.3794 14.6954C17.6349 14.4321 17.8163 14.1059 17.9054 13.75C18.1397 12.4507 18.2552 11.1328 18.2504 9.8125C18.2588 8.47222 18.1434 7.13402 17.9054 5.815V5.815Z" stroke="#8F5DFF" stroke-width="1.5" stroke-linecap="round" stroke-linejoin="round"/>
<path id="Icon_2" d="M8.3125 12.2654L12.625 9.81285L8.3125 7.36035V12.2654Z" stroke="#8F5DFF" stroke-width="1.5" stroke-linecap="round" stroke-linejoin="round"/>
</g>
</svg>
