<svg width="21" height="20" viewBox="0 0 21 20" fill="none" xmlns="http://www.w3.org/2000/svg">
<g id="youtube">
<path id="Icon" d="M18.4054 5.815C18.3163 5.45906 18.1349 5.13293 17.8794 4.86955C17.6239 4.60618 17.3035 4.41489 16.9504 4.315C15.6604 4 10.5004 4 10.5004 4C10.5004 4 5.34043 4 4.05043 4.345C3.69736 4.44489 3.37691 4.63618 3.12144 4.89955C2.86597 5.16293 2.68452 5.48906 2.59543 5.845C2.35934 7.15417 2.24386 8.48223 2.25043 9.8125C2.24201 11.1528 2.3575 12.491 2.59543 13.81C2.69365 14.1549 2.87916 14.4686 3.13404 14.7209C3.38891 14.9731 3.70454 15.1554 4.05043 15.25C5.34043 15.595 10.5004 15.595 10.5004 15.595C10.5004 15.595 15.6604 15.595 16.9504 15.25C17.3035 15.1501 17.6239 14.9588 17.8794 14.6954C18.1349 14.4321 18.3163 14.1059 18.4054 13.75C18.6397 12.4507 18.7552 11.1328 18.7504 9.8125C18.7588 8.47222 18.6434 7.13402 18.4054 5.815V5.815Z" stroke="white" stroke-width="1.5" stroke-linecap="round" stroke-linejoin="round"/>
<path id="Icon_2" d="M8.8125 12.2654L13.125 9.81285L8.8125 7.36035V12.2654Z" stroke="white" stroke-width="1.5" stroke-linecap="round" stroke-linejoin="round"/>
</g>
</svg>
